<mxfile host="Electron" modified="2023-04-21T16:45:02.221Z" agent="Mozilla/5.0 (Windows NT 10.0; Win64; x64) AppleWebKit/537.36 (KHTML, like Gecko) draw.io/21.1.2 Chrome/106.0.5249.199 Electron/21.4.3 Safari/537.36" etag="3mqzRQWenoK2HL-cH0as" version="21.1.2" type="device" pages="5">
  <diagram name="Diagramme E/S" id="FaaoS_0i5eSmgUsgMIVY">
    <mxGraphModel dx="1418" dy="820" grid="1" gridSize="10" guides="1" tooltips="1" connect="1" arrows="1" fold="1" page="1" pageScale="1" pageWidth="827" pageHeight="1169" math="0" shadow="0">
      <root>
        <mxCell id="0" />
        <mxCell id="1" parent="0" />
        <mxCell id="nN23Rkz-wka3NvtrR0hJ-2" value="Respirateur PPC" style="rounded=0;whiteSpace=wrap;html=1;" parent="1" vertex="1">
          <mxGeometry x="430" y="580" width="200" height="380" as="geometry" />
        </mxCell>
        <mxCell id="nN23Rkz-wka3NvtrR0hJ-3" value="Blower" style="ellipse;shape=cloud;whiteSpace=wrap;html=1;" parent="1" vertex="1">
          <mxGeometry x="150" y="585" width="150" height="90" as="geometry" />
        </mxCell>
        <mxCell id="nN23Rkz-wka3NvtrR0hJ-4" value="Utilisateur" style="ellipse;shape=cloud;whiteSpace=wrap;html=1;" parent="1" vertex="1">
          <mxGeometry x="150" y="710" width="150" height="90" as="geometry" />
        </mxCell>
        <mxCell id="nN23Rkz-wka3NvtrR0hJ-5" value="Débitmètre&lt;br&gt;+&lt;br&gt;Capteur de pression" style="ellipse;shape=cloud;whiteSpace=wrap;html=1;" parent="1" vertex="1">
          <mxGeometry x="150" y="840" width="150" height="90" as="geometry" />
        </mxCell>
        <mxCell id="nN23Rkz-wka3NvtrR0hJ-6" value="Afficheur&lt;br&gt;+&lt;br&gt;Carte SD" style="ellipse;shape=cloud;whiteSpace=wrap;html=1;" parent="1" vertex="1">
          <mxGeometry x="760" y="580" width="150" height="90" as="geometry" />
        </mxCell>
        <mxCell id="nN23Rkz-wka3NvtrR0hJ-7" value="" style="endArrow=doubleBlock;html=1;rounded=0;exitX=0;exitY=0.129;exitDx=0;exitDy=0;exitPerimeter=0;entryX=0.875;entryY=0.5;entryDx=0;entryDy=0;entryPerimeter=0;endFill=1;" parent="1" source="nN23Rkz-wka3NvtrR0hJ-2" target="nN23Rkz-wka3NvtrR0hJ-3" edge="1">
          <mxGeometry width="50" height="50" relative="1" as="geometry">
            <mxPoint x="390" y="550" as="sourcePoint" />
            <mxPoint x="440" y="500" as="targetPoint" />
          </mxGeometry>
        </mxCell>
        <mxCell id="nN23Rkz-wka3NvtrR0hJ-8" value="" style="endArrow=doubleBlock;html=1;rounded=0;exitX=0.875;exitY=0.5;exitDx=0;exitDy=0;exitPerimeter=0;entryX=-0.02;entryY=0.461;entryDx=0;entryDy=0;entryPerimeter=0;startArrow=none;startFill=0;endFill=1;" parent="1" source="nN23Rkz-wka3NvtrR0hJ-4" target="nN23Rkz-wka3NvtrR0hJ-2" edge="1">
          <mxGeometry width="50" height="50" relative="1" as="geometry">
            <mxPoint x="390" y="540" as="sourcePoint" />
            <mxPoint x="440" y="490" as="targetPoint" />
          </mxGeometry>
        </mxCell>
        <mxCell id="nN23Rkz-wka3NvtrR0hJ-9" value="" style="endArrow=doubleBlock;html=1;rounded=0;exitX=0.875;exitY=0.5;exitDx=0;exitDy=0;exitPerimeter=0;entryX=-0.02;entryY=0.461;entryDx=0;entryDy=0;entryPerimeter=0;startArrow=none;startFill=0;endFill=1;" parent="1" edge="1">
          <mxGeometry width="50" height="50" relative="1" as="geometry">
            <mxPoint x="285" y="870" as="sourcePoint" />
            <mxPoint x="430" y="870" as="targetPoint" />
          </mxGeometry>
        </mxCell>
        <mxCell id="nN23Rkz-wka3NvtrR0hJ-10" value="" style="endArrow=doubleBlock;html=1;rounded=0;exitX=0.875;exitY=0.5;exitDx=0;exitDy=0;exitPerimeter=0;entryX=-0.02;entryY=0.461;entryDx=0;entryDy=0;entryPerimeter=0;startArrow=none;startFill=0;endFill=1;" parent="1" edge="1">
          <mxGeometry width="50" height="50" relative="1" as="geometry">
            <mxPoint x="285" y="910" as="sourcePoint" />
            <mxPoint x="430" y="910" as="targetPoint" />
          </mxGeometry>
        </mxCell>
        <mxCell id="pZ01D8k365DpwjfR8FbN-1" value="" style="endArrow=doubleBlock;html=1;rounded=0;exitX=0.875;exitY=0.5;exitDx=0;exitDy=0;exitPerimeter=0;entryX=-0.02;entryY=0.461;entryDx=0;entryDy=0;entryPerimeter=0;startArrow=none;startFill=0;endFill=1;" parent="1" edge="1">
          <mxGeometry width="50" height="50" relative="1" as="geometry">
            <mxPoint x="630" y="610" as="sourcePoint" />
            <mxPoint x="775" y="610" as="targetPoint" />
          </mxGeometry>
        </mxCell>
        <mxCell id="pZ01D8k365DpwjfR8FbN-2" value="" style="endArrow=doubleBlock;html=1;rounded=0;exitX=0.875;exitY=0.5;exitDx=0;exitDy=0;exitPerimeter=0;entryX=-0.02;entryY=0.461;entryDx=0;entryDy=0;entryPerimeter=0;startArrow=none;startFill=0;endFill=1;" parent="1" edge="1">
          <mxGeometry width="50" height="50" relative="1" as="geometry">
            <mxPoint x="630" y="650" as="sourcePoint" />
            <mxPoint x="775" y="650" as="targetPoint" />
          </mxGeometry>
        </mxCell>
        <mxCell id="pZ01D8k365DpwjfR8FbN-3" value="CmdBlower" style="text;html=1;align=center;verticalAlign=middle;resizable=0;points=[];autosize=1;strokeColor=none;fillColor=none;" parent="1" vertex="1">
          <mxGeometry x="320" y="600" width="90" height="30" as="geometry" />
        </mxCell>
        <mxCell id="pZ01D8k365DpwjfR8FbN-4" value="SeuilBlower" style="text;html=1;align=center;verticalAlign=middle;resizable=0;points=[];autosize=1;strokeColor=none;fillColor=none;" parent="1" vertex="1">
          <mxGeometry x="320" y="730" width="90" height="30" as="geometry" />
        </mxCell>
        <mxCell id="pZ01D8k365DpwjfR8FbN-5" value="Airflow" style="text;html=1;align=center;verticalAlign=middle;resizable=0;points=[];autosize=1;strokeColor=none;fillColor=none;" parent="1" vertex="1">
          <mxGeometry x="335" y="840" width="60" height="30" as="geometry" />
        </mxCell>
        <mxCell id="pZ01D8k365DpwjfR8FbN-6" value="Pressure" style="text;html=1;align=center;verticalAlign=middle;resizable=0;points=[];autosize=1;strokeColor=none;fillColor=none;" parent="1" vertex="1">
          <mxGeometry x="330" y="880" width="70" height="30" as="geometry" />
        </mxCell>
        <mxCell id="pZ01D8k365DpwjfR8FbN-7" value="Affichage" style="text;html=1;align=center;verticalAlign=middle;resizable=0;points=[];autosize=1;strokeColor=none;fillColor=none;" parent="1" vertex="1">
          <mxGeometry x="660" y="580" width="70" height="30" as="geometry" />
        </mxCell>
        <mxCell id="pZ01D8k365DpwjfR8FbN-8" value="Données" style="text;html=1;align=center;verticalAlign=middle;resizable=0;points=[];autosize=1;strokeColor=none;fillColor=none;" parent="1" vertex="1">
          <mxGeometry x="660" y="620" width="70" height="30" as="geometry" />
        </mxCell>
      </root>
    </mxGraphModel>
  </diagram>
  <diagram id="_c-4UJS8gRsAIdvQI70L" name="Diagramme d&#39;activité">
    <mxGraphModel dx="810" dy="469" grid="1" gridSize="10" guides="1" tooltips="1" connect="1" arrows="1" fold="1" page="1" pageScale="1" pageWidth="827" pageHeight="1169" math="0" shadow="0">
      <root>
        <mxCell id="0" />
        <mxCell id="1" parent="0" />
        <mxCell id="PihKCJlAFCmHtH1fZqK4-1" value="" style="rounded=0;whiteSpace=wrap;html=1;" parent="1" vertex="1">
          <mxGeometry x="320" y="585" width="200" height="380" as="geometry" />
        </mxCell>
        <mxCell id="PihKCJlAFCmHtH1fZqK4-6" value="" style="endArrow=none;html=1;rounded=0;exitX=0;exitY=0.129;exitDx=0;exitDy=0;exitPerimeter=0;entryX=0.875;entryY=0.5;entryDx=0;entryDy=0;entryPerimeter=0;endFill=0;startArrow=doubleBlock;startFill=1;" parent="1" edge="1">
          <mxGeometry width="50" height="50" relative="1" as="geometry">
            <mxPoint x="668.75" y="689" as="sourcePoint" />
            <mxPoint x="520" y="689.98" as="targetPoint" />
          </mxGeometry>
        </mxCell>
        <mxCell id="PihKCJlAFCmHtH1fZqK4-7" value="" style="endArrow=doubleBlock;html=1;rounded=0;exitX=0.875;exitY=0.5;exitDx=0;exitDy=0;exitPerimeter=0;entryX=-0.02;entryY=0.461;entryDx=0;entryDy=0;entryPerimeter=0;startArrow=none;startFill=0;endFill=1;" parent="1" edge="1">
          <mxGeometry width="50" height="50" relative="1" as="geometry">
            <mxPoint x="175.25" y="890" as="sourcePoint" />
            <mxPoint x="320" y="890.1800000000001" as="targetPoint" />
          </mxGeometry>
        </mxCell>
        <mxCell id="PihKCJlAFCmHtH1fZqK4-8" value="" style="endArrow=doubleBlock;html=1;rounded=0;exitX=0.875;exitY=0.5;exitDx=0;exitDy=0;exitPerimeter=0;entryX=-0.02;entryY=0.461;entryDx=0;entryDy=0;entryPerimeter=0;startArrow=none;startFill=0;endFill=1;" parent="1" edge="1">
          <mxGeometry width="50" height="50" relative="1" as="geometry">
            <mxPoint x="175" y="690" as="sourcePoint" />
            <mxPoint x="320" y="690" as="targetPoint" />
          </mxGeometry>
        </mxCell>
        <mxCell id="PihKCJlAFCmHtH1fZqK4-9" value="" style="endArrow=doubleBlock;html=1;rounded=0;exitX=0.875;exitY=0.5;exitDx=0;exitDy=0;exitPerimeter=0;entryX=-0.02;entryY=0.461;entryDx=0;entryDy=0;entryPerimeter=0;startArrow=none;startFill=0;endFill=1;" parent="1" edge="1">
          <mxGeometry width="50" height="50" relative="1" as="geometry">
            <mxPoint x="175" y="650" as="sourcePoint" />
            <mxPoint x="320" y="650" as="targetPoint" />
          </mxGeometry>
        </mxCell>
        <mxCell id="PihKCJlAFCmHtH1fZqK4-10" value="" style="endArrow=doubleBlock;html=1;rounded=0;exitX=0.875;exitY=0.5;exitDx=0;exitDy=0;exitPerimeter=0;entryX=-0.02;entryY=0.461;entryDx=0;entryDy=0;entryPerimeter=0;startArrow=none;startFill=0;endFill=1;" parent="1" edge="1">
          <mxGeometry width="50" height="50" relative="1" as="geometry">
            <mxPoint x="520" y="870" as="sourcePoint" />
            <mxPoint x="665" y="870" as="targetPoint" />
          </mxGeometry>
        </mxCell>
        <mxCell id="PihKCJlAFCmHtH1fZqK4-11" value="" style="endArrow=doubleBlock;html=1;rounded=0;exitX=0.875;exitY=0.5;exitDx=0;exitDy=0;exitPerimeter=0;entryX=-0.02;entryY=0.461;entryDx=0;entryDy=0;entryPerimeter=0;startArrow=none;startFill=0;endFill=1;" parent="1" edge="1">
          <mxGeometry width="50" height="50" relative="1" as="geometry">
            <mxPoint x="520" y="910" as="sourcePoint" />
            <mxPoint x="665" y="910" as="targetPoint" />
          </mxGeometry>
        </mxCell>
        <mxCell id="PihKCJlAFCmHtH1fZqK4-12" value="CmdBlower" style="text;html=1;align=center;verticalAlign=middle;resizable=0;points=[];autosize=1;strokeColor=none;fillColor=none;" parent="1" vertex="1">
          <mxGeometry x="558.75" y="659.98" width="90" height="30" as="geometry" />
        </mxCell>
        <mxCell id="PihKCJlAFCmHtH1fZqK4-13" value="SeuilBlower" style="text;html=1;align=center;verticalAlign=middle;resizable=0;points=[];autosize=1;strokeColor=none;fillColor=none;" parent="1" vertex="1">
          <mxGeometry x="210" y="860" width="90" height="30" as="geometry" />
        </mxCell>
        <mxCell id="PihKCJlAFCmHtH1fZqK4-14" value="Airflow" style="text;html=1;align=center;verticalAlign=middle;resizable=0;points=[];autosize=1;strokeColor=none;fillColor=none;" parent="1" vertex="1">
          <mxGeometry x="225" y="660" width="60" height="30" as="geometry" />
        </mxCell>
        <mxCell id="PihKCJlAFCmHtH1fZqK4-15" value="Pressure" style="text;html=1;align=center;verticalAlign=middle;resizable=0;points=[];autosize=1;strokeColor=none;fillColor=none;" parent="1" vertex="1">
          <mxGeometry x="220" y="620" width="70" height="30" as="geometry" />
        </mxCell>
        <mxCell id="PihKCJlAFCmHtH1fZqK4-16" value="Affichage" style="text;html=1;align=center;verticalAlign=middle;resizable=0;points=[];autosize=1;strokeColor=none;fillColor=none;" parent="1" vertex="1">
          <mxGeometry x="550" y="840" width="70" height="30" as="geometry" />
        </mxCell>
        <mxCell id="PihKCJlAFCmHtH1fZqK4-17" value="Données" style="text;html=1;align=center;verticalAlign=middle;resizable=0;points=[];autosize=1;strokeColor=none;fillColor=none;" parent="1" vertex="1">
          <mxGeometry x="550" y="880" width="70" height="30" as="geometry" />
        </mxCell>
        <mxCell id="PihKCJlAFCmHtH1fZqK4-18" value="Commande de l&#39;air" style="rounded=1;whiteSpace=wrap;html=1;" parent="1" vertex="1">
          <mxGeometry x="360" y="610" width="120" height="160" as="geometry" />
        </mxCell>
        <mxCell id="PihKCJlAFCmHtH1fZqK4-19" value="IHM" style="rounded=1;whiteSpace=wrap;html=1;" parent="1" vertex="1">
          <mxGeometry x="360" y="850" width="120" height="80" as="geometry" />
        </mxCell>
        <mxCell id="PihKCJlAFCmHtH1fZqK4-20" value="" style="endArrow=doubleBlock;html=1;rounded=0;exitX=0.006;exitY=0.171;exitDx=0;exitDy=0;exitPerimeter=0;entryX=0;entryY=0.25;entryDx=0;entryDy=0;startArrow=none;startFill=0;endFill=1;" parent="1" source="PihKCJlAFCmHtH1fZqK4-1" target="PihKCJlAFCmHtH1fZqK4-18" edge="1">
          <mxGeometry width="50" height="50" relative="1" as="geometry">
            <mxPoint x="185" y="660" as="sourcePoint" />
            <mxPoint x="330" y="660" as="targetPoint" />
          </mxGeometry>
        </mxCell>
        <mxCell id="PihKCJlAFCmHtH1fZqK4-21" value="" style="endArrow=doubleBlock;html=1;rounded=0;exitX=0.006;exitY=0.171;exitDx=0;exitDy=0;exitPerimeter=0;entryX=0;entryY=0.25;entryDx=0;entryDy=0;startArrow=none;startFill=0;endFill=1;" parent="1" edge="1">
          <mxGeometry width="50" height="50" relative="1" as="geometry">
            <mxPoint x="320" y="690" as="sourcePoint" />
            <mxPoint x="359" y="690" as="targetPoint" />
          </mxGeometry>
        </mxCell>
        <mxCell id="PihKCJlAFCmHtH1fZqK4-22" value="" style="endArrow=doubleBlock;html=1;rounded=0;exitX=0.004;exitY=0.803;exitDx=0;exitDy=0;exitPerimeter=0;entryX=0;entryY=0.5;entryDx=0;entryDy=0;startArrow=none;startFill=0;endFill=1;" parent="1" source="PihKCJlAFCmHtH1fZqK4-1" target="PihKCJlAFCmHtH1fZqK4-19" edge="1">
          <mxGeometry width="50" height="50" relative="1" as="geometry">
            <mxPoint x="321" y="730" as="sourcePoint" />
            <mxPoint x="360" y="730" as="targetPoint" />
          </mxGeometry>
        </mxCell>
        <mxCell id="PihKCJlAFCmHtH1fZqK4-24" value="" style="endArrow=doubleBlock;html=1;rounded=0;exitX=0.006;exitY=0.171;exitDx=0;exitDy=0;exitPerimeter=0;entryX=0;entryY=0.25;entryDx=0;entryDy=0;startArrow=none;startFill=0;endFill=1;" parent="1" edge="1">
          <mxGeometry width="50" height="50" relative="1" as="geometry">
            <mxPoint x="480" y="690" as="sourcePoint" />
            <mxPoint x="519" y="690" as="targetPoint" />
          </mxGeometry>
        </mxCell>
        <mxCell id="PihKCJlAFCmHtH1fZqK4-25" value="" style="endArrow=doubleBlock;html=1;rounded=0;exitX=0.006;exitY=0.171;exitDx=0;exitDy=0;exitPerimeter=0;entryX=0;entryY=0.25;entryDx=0;entryDy=0;startArrow=none;startFill=0;endFill=1;" parent="1" edge="1">
          <mxGeometry width="50" height="50" relative="1" as="geometry">
            <mxPoint x="480" y="870" as="sourcePoint" />
            <mxPoint x="519" y="870" as="targetPoint" />
          </mxGeometry>
        </mxCell>
        <mxCell id="PihKCJlAFCmHtH1fZqK4-26" value="" style="endArrow=doubleBlock;html=1;rounded=0;exitX=0.006;exitY=0.171;exitDx=0;exitDy=0;exitPerimeter=0;entryX=0;entryY=0.25;entryDx=0;entryDy=0;startArrow=none;startFill=0;endFill=1;" parent="1" edge="1">
          <mxGeometry width="50" height="50" relative="1" as="geometry">
            <mxPoint x="480" y="910" as="sourcePoint" />
            <mxPoint x="519" y="910" as="targetPoint" />
          </mxGeometry>
        </mxCell>
        <mxCell id="PihKCJlAFCmHtH1fZqK4-27" value="" style="endArrow=doubleBlock;html=1;rounded=0;exitX=0.25;exitY=1;exitDx=0;exitDy=0;entryX=0.25;entryY=0;entryDx=0;entryDy=0;startArrow=none;startFill=0;endFill=1;" parent="1" source="PihKCJlAFCmHtH1fZqK4-18" target="PihKCJlAFCmHtH1fZqK4-19" edge="1">
          <mxGeometry width="50" height="50" relative="1" as="geometry">
            <mxPoint x="390" y="810" as="sourcePoint" />
            <mxPoint x="429" y="810" as="targetPoint" />
          </mxGeometry>
        </mxCell>
        <mxCell id="PihKCJlAFCmHtH1fZqK4-28" value="" style="endArrow=doubleBlock;html=1;rounded=0;exitX=0.75;exitY=1;exitDx=0;exitDy=0;entryX=0.75;entryY=0;entryDx=0;entryDy=0;startArrow=none;startFill=0;endFill=1;" parent="1" edge="1">
          <mxGeometry width="50" height="50" relative="1" as="geometry">
            <mxPoint x="414" y="770" as="sourcePoint" />
            <mxPoint x="414" y="850" as="targetPoint" />
          </mxGeometry>
        </mxCell>
        <mxCell id="PihKCJlAFCmHtH1fZqK4-29" value="Débit" style="text;html=1;align=center;verticalAlign=middle;resizable=0;points=[];autosize=1;strokeColor=none;fillColor=none;rotation=-90;" parent="1" vertex="1">
          <mxGeometry x="350" y="790" width="50" height="30" as="geometry" />
        </mxCell>
        <mxCell id="PihKCJlAFCmHtH1fZqK4-30" value="Pression" style="text;html=1;align=center;verticalAlign=middle;resizable=0;points=[];autosize=1;strokeColor=none;fillColor=none;rotation=90;" parent="1" vertex="1">
          <mxGeometry x="390" y="790" width="70" height="30" as="geometry" />
        </mxCell>
        <mxCell id="BPYP8uorgodWQK7hmUL6-1" value="" style="endArrow=none;html=1;rounded=0;exitX=0.25;exitY=1;exitDx=0;exitDy=0;entryX=0.25;entryY=0;entryDx=0;entryDy=0;startArrow=doubleBlock;startFill=1;endFill=0;" edge="1" parent="1">
          <mxGeometry width="50" height="50" relative="1" as="geometry">
            <mxPoint x="450" y="770" as="sourcePoint" />
            <mxPoint x="450" y="850" as="targetPoint" />
          </mxGeometry>
        </mxCell>
        <mxCell id="BPYP8uorgodWQK7hmUL6-2" value="Seuil" style="text;html=1;align=center;verticalAlign=middle;resizable=0;points=[];autosize=1;strokeColor=none;fillColor=none;rotation=90;" vertex="1" parent="1">
          <mxGeometry x="440" y="790" width="50" height="30" as="geometry" />
        </mxCell>
      </root>
    </mxGraphModel>
  </diagram>
  <diagram id="EhbAeEotZIYceBWTumSg" name="Première décomposition">
    <mxGraphModel dx="1182" dy="683" grid="1" gridSize="10" guides="1" tooltips="1" connect="1" arrows="1" fold="1" page="1" pageScale="1" pageWidth="827" pageHeight="1169" math="0" shadow="0">
      <root>
        <mxCell id="0" />
        <mxCell id="1" parent="0" />
        <mxCell id="Zr0C-17t6LzpXbw09GF8-1" value="" style="rounded=0;whiteSpace=wrap;html=1;" parent="1" vertex="1">
          <mxGeometry x="320" y="585" width="290" height="380" as="geometry" />
        </mxCell>
        <mxCell id="Zr0C-17t6LzpXbw09GF8-2" value="" style="endArrow=none;html=1;rounded=0;exitX=0;exitY=0.129;exitDx=0;exitDy=0;exitPerimeter=0;entryX=0.875;entryY=0.5;entryDx=0;entryDy=0;entryPerimeter=0;endFill=0;startArrow=classic;startFill=1;" parent="1" edge="1">
          <mxGeometry width="50" height="50" relative="1" as="geometry">
            <mxPoint x="758.75" y="689" as="sourcePoint" />
            <mxPoint x="610" y="689.98" as="targetPoint" />
          </mxGeometry>
        </mxCell>
        <mxCell id="Zr0C-17t6LzpXbw09GF8-3" value="" style="endArrow=classic;html=1;rounded=0;exitX=0.875;exitY=0.5;exitDx=0;exitDy=0;exitPerimeter=0;entryX=-0.02;entryY=0.461;entryDx=0;entryDy=0;entryPerimeter=0;startArrow=none;startFill=0;endFill=1;" parent="1" edge="1">
          <mxGeometry width="50" height="50" relative="1" as="geometry">
            <mxPoint x="175.25" y="890" as="sourcePoint" />
            <mxPoint x="320" y="890.1800000000001" as="targetPoint" />
          </mxGeometry>
        </mxCell>
        <mxCell id="Zr0C-17t6LzpXbw09GF8-4" value="" style="endArrow=classic;html=1;rounded=0;exitX=0.875;exitY=0.5;exitDx=0;exitDy=0;exitPerimeter=0;entryX=-0.02;entryY=0.461;entryDx=0;entryDy=0;entryPerimeter=0;startArrow=none;startFill=0;endFill=1;" parent="1" edge="1">
          <mxGeometry width="50" height="50" relative="1" as="geometry">
            <mxPoint x="176" y="690" as="sourcePoint" />
            <mxPoint x="321" y="690" as="targetPoint" />
          </mxGeometry>
        </mxCell>
        <mxCell id="Zr0C-17t6LzpXbw09GF8-5" value="" style="endArrow=classic;html=1;rounded=0;exitX=0.875;exitY=0.5;exitDx=0;exitDy=0;exitPerimeter=0;entryX=-0.02;entryY=0.461;entryDx=0;entryDy=0;entryPerimeter=0;startArrow=none;startFill=0;endFill=1;" parent="1" edge="1">
          <mxGeometry width="50" height="50" relative="1" as="geometry">
            <mxPoint x="175" y="620" as="sourcePoint" />
            <mxPoint x="320" y="620" as="targetPoint" />
          </mxGeometry>
        </mxCell>
        <mxCell id="Zr0C-17t6LzpXbw09GF8-6" value="" style="endArrow=classic;html=1;rounded=0;exitX=0.875;exitY=0.5;exitDx=0;exitDy=0;exitPerimeter=0;entryX=-0.02;entryY=0.461;entryDx=0;entryDy=0;entryPerimeter=0;startArrow=none;startFill=0;endFill=1;" parent="1" edge="1">
          <mxGeometry width="50" height="50" relative="1" as="geometry">
            <mxPoint x="610" y="860" as="sourcePoint" />
            <mxPoint x="755" y="860" as="targetPoint" />
          </mxGeometry>
        </mxCell>
        <mxCell id="Zr0C-17t6LzpXbw09GF8-7" value="" style="endArrow=classic;html=1;rounded=0;exitX=0.875;exitY=0.5;exitDx=0;exitDy=0;exitPerimeter=0;entryX=-0.02;entryY=0.461;entryDx=0;entryDy=0;entryPerimeter=0;startArrow=none;startFill=0;endFill=1;" parent="1" edge="1">
          <mxGeometry width="50" height="50" relative="1" as="geometry">
            <mxPoint x="610" y="930" as="sourcePoint" />
            <mxPoint x="755" y="930" as="targetPoint" />
          </mxGeometry>
        </mxCell>
        <mxCell id="Zr0C-17t6LzpXbw09GF8-8" value="CmdBlower" style="text;html=1;align=center;verticalAlign=middle;resizable=0;points=[];autosize=1;strokeColor=none;fillColor=none;" parent="1" vertex="1">
          <mxGeometry x="635" y="640" width="90" height="30" as="geometry" />
        </mxCell>
        <mxCell id="Zr0C-17t6LzpXbw09GF8-9" value="SeuilBlower" style="text;html=1;align=center;verticalAlign=middle;resizable=0;points=[];autosize=1;strokeColor=none;fillColor=none;" parent="1" vertex="1">
          <mxGeometry x="205" y="840" width="90" height="30" as="geometry" />
        </mxCell>
        <mxCell id="Zr0C-17t6LzpXbw09GF8-10" value="Airflow" style="text;html=1;align=center;verticalAlign=middle;resizable=0;points=[];autosize=1;strokeColor=none;fillColor=none;" parent="1" vertex="1">
          <mxGeometry x="220" y="640" width="60" height="30" as="geometry" />
        </mxCell>
        <mxCell id="Zr0C-17t6LzpXbw09GF8-11" value="Pressure" style="text;html=1;align=center;verticalAlign=middle;resizable=0;points=[];autosize=1;strokeColor=none;fillColor=none;" parent="1" vertex="1">
          <mxGeometry x="215" y="570" width="70" height="30" as="geometry" />
        </mxCell>
        <mxCell id="Zr0C-17t6LzpXbw09GF8-12" value="Affichage" style="text;html=1;align=center;verticalAlign=middle;resizable=0;points=[];autosize=1;strokeColor=none;fillColor=none;" parent="1" vertex="1">
          <mxGeometry x="645" y="810" width="70" height="30" as="geometry" />
        </mxCell>
        <mxCell id="Zr0C-17t6LzpXbw09GF8-13" value="Données" style="text;html=1;align=center;verticalAlign=middle;resizable=0;points=[];autosize=1;strokeColor=none;fillColor=none;" parent="1" vertex="1">
          <mxGeometry x="645" y="880" width="70" height="30" as="geometry" />
        </mxCell>
        <mxCell id="Zr0C-17t6LzpXbw09GF8-14" value="Commande de l&#39;air" style="rounded=1;whiteSpace=wrap;html=1;" parent="1" vertex="1">
          <mxGeometry x="360" y="610" width="210" height="160" as="geometry" />
        </mxCell>
        <mxCell id="Zr0C-17t6LzpXbw09GF8-15" value="IHM" style="rounded=1;whiteSpace=wrap;html=1;" parent="1" vertex="1">
          <mxGeometry x="360" y="850" width="210" height="90" as="geometry" />
        </mxCell>
        <mxCell id="Zr0C-17t6LzpXbw09GF8-16" value="" style="endArrow=classic;html=1;rounded=0;exitX=0.006;exitY=0.171;exitDx=0;exitDy=0;exitPerimeter=0;entryX=0;entryY=0.25;entryDx=0;entryDy=0;startArrow=none;startFill=0;endFill=1;" parent="1" edge="1">
          <mxGeometry width="50" height="50" relative="1" as="geometry">
            <mxPoint x="321.20000000000005" y="619.98" as="sourcePoint" />
            <mxPoint x="360" y="620" as="targetPoint" />
          </mxGeometry>
        </mxCell>
        <mxCell id="Zr0C-17t6LzpXbw09GF8-17" value="" style="endArrow=classic;html=1;rounded=0;exitX=0.006;exitY=0.171;exitDx=0;exitDy=0;exitPerimeter=0;entryX=0;entryY=0.25;entryDx=0;entryDy=0;startArrow=none;startFill=0;endFill=1;" parent="1" edge="1">
          <mxGeometry width="50" height="50" relative="1" as="geometry">
            <mxPoint x="321" y="690" as="sourcePoint" />
            <mxPoint x="360" y="690" as="targetPoint" />
          </mxGeometry>
        </mxCell>
        <mxCell id="Zr0C-17t6LzpXbw09GF8-18" value="" style="endArrow=classic;html=1;rounded=0;exitX=0.007;exitY=0.396;exitDx=0;exitDy=0;exitPerimeter=0;entryX=0;entryY=0.785;entryDx=0;entryDy=0;startArrow=none;startFill=0;endFill=1;entryPerimeter=0;" parent="1" edge="1">
          <mxGeometry width="50" height="50" relative="1" as="geometry">
            <mxPoint x="321.4000000000001" y="890.48" as="sourcePoint" />
            <mxPoint x="360" y="890.6000000000001" as="targetPoint" />
          </mxGeometry>
        </mxCell>
        <mxCell id="Zr0C-17t6LzpXbw09GF8-19" value="" style="endArrow=classic;html=1;rounded=0;exitX=0.006;exitY=0.171;exitDx=0;exitDy=0;exitPerimeter=0;entryX=0;entryY=0.25;entryDx=0;entryDy=0;startArrow=none;startFill=0;endFill=1;" parent="1" edge="1">
          <mxGeometry width="50" height="50" relative="1" as="geometry">
            <mxPoint x="570" y="690" as="sourcePoint" />
            <mxPoint x="609" y="690" as="targetPoint" />
          </mxGeometry>
        </mxCell>
        <mxCell id="Zr0C-17t6LzpXbw09GF8-20" value="" style="endArrow=classic;html=1;rounded=0;exitX=0.006;exitY=0.171;exitDx=0;exitDy=0;exitPerimeter=0;entryX=0;entryY=0.25;entryDx=0;entryDy=0;startArrow=none;startFill=0;endFill=1;" parent="1" edge="1">
          <mxGeometry width="50" height="50" relative="1" as="geometry">
            <mxPoint x="570" y="860" as="sourcePoint" />
            <mxPoint x="609" y="860" as="targetPoint" />
          </mxGeometry>
        </mxCell>
        <mxCell id="Zr0C-17t6LzpXbw09GF8-21" value="" style="endArrow=classic;html=1;rounded=0;exitX=0.006;exitY=0.171;exitDx=0;exitDy=0;exitPerimeter=0;entryX=0;entryY=0.25;entryDx=0;entryDy=0;startArrow=none;startFill=0;endFill=1;" parent="1" edge="1">
          <mxGeometry width="50" height="50" relative="1" as="geometry">
            <mxPoint x="570" y="930" as="sourcePoint" />
            <mxPoint x="609" y="930" as="targetPoint" />
          </mxGeometry>
        </mxCell>
        <mxCell id="Zr0C-17t6LzpXbw09GF8-22" value="" style="endArrow=classic;html=1;rounded=0;exitX=0.141;exitY=1;exitDx=0;exitDy=0;entryX=0.144;entryY=-0.004;entryDx=0;entryDy=0;startArrow=none;startFill=0;endFill=1;exitPerimeter=0;entryPerimeter=0;" parent="1" source="Zr0C-17t6LzpXbw09GF8-14" target="Zr0C-17t6LzpXbw09GF8-15" edge="1">
          <mxGeometry width="50" height="50" relative="1" as="geometry">
            <mxPoint x="390" y="810" as="sourcePoint" />
            <mxPoint x="429" y="810" as="targetPoint" />
          </mxGeometry>
        </mxCell>
        <mxCell id="Zr0C-17t6LzpXbw09GF8-23" value="" style="endArrow=classic;html=1;rounded=0;entryX=0.43;entryY=0.015;entryDx=0;entryDy=0;startArrow=none;startFill=0;endFill=1;entryPerimeter=0;" parent="1" target="Zr0C-17t6LzpXbw09GF8-15" edge="1">
          <mxGeometry width="50" height="50" relative="1" as="geometry">
            <mxPoint x="450" y="770" as="sourcePoint" />
            <mxPoint x="440" y="860" as="targetPoint" />
          </mxGeometry>
        </mxCell>
        <mxCell id="Zr0C-17t6LzpXbw09GF8-24" value="Débit" style="text;html=1;align=center;verticalAlign=middle;resizable=0;points=[];autosize=1;strokeColor=none;fillColor=none;rotation=-90;" parent="1" vertex="1">
          <mxGeometry x="330" y="785" width="50" height="30" as="geometry" />
        </mxCell>
        <mxCell id="Zr0C-17t6LzpXbw09GF8-25" value="Pression" style="text;html=1;align=center;verticalAlign=middle;resizable=0;points=[];autosize=1;strokeColor=none;fillColor=none;rotation=90;" parent="1" vertex="1">
          <mxGeometry x="450" y="790" width="70" height="30" as="geometry" />
        </mxCell>
        <mxCell id="cT3CMjK7nl7czI4NIodN-4" value="" style="group" vertex="1" connectable="0" parent="1">
          <mxGeometry x="240" y="600" width="20" height="40" as="geometry" />
        </mxCell>
        <mxCell id="cT3CMjK7nl7czI4NIodN-1" value="" style="endArrow=none;html=1;rounded=0;" edge="1" parent="cT3CMjK7nl7czI4NIodN-4">
          <mxGeometry width="50" height="50" relative="1" as="geometry">
            <mxPoint x="10" y="40" as="sourcePoint" />
            <mxPoint x="10" as="targetPoint" />
          </mxGeometry>
        </mxCell>
        <mxCell id="cT3CMjK7nl7czI4NIodN-2" value="" style="endArrow=none;html=1;rounded=0;" edge="1" parent="cT3CMjK7nl7czI4NIodN-4">
          <mxGeometry width="50" height="50" relative="1" as="geometry">
            <mxPoint as="sourcePoint" />
            <mxPoint x="20" as="targetPoint" />
          </mxGeometry>
        </mxCell>
        <mxCell id="cT3CMjK7nl7czI4NIodN-3" value="" style="endArrow=none;html=1;rounded=0;" edge="1" parent="cT3CMjK7nl7czI4NIodN-4">
          <mxGeometry width="50" height="50" relative="1" as="geometry">
            <mxPoint y="40" as="sourcePoint" />
            <mxPoint x="20" y="40" as="targetPoint" />
          </mxGeometry>
        </mxCell>
        <mxCell id="cT3CMjK7nl7czI4NIodN-5" value="" style="group" vertex="1" connectable="0" parent="1">
          <mxGeometry x="241" y="670" width="20" height="40" as="geometry" />
        </mxCell>
        <mxCell id="cT3CMjK7nl7czI4NIodN-6" value="" style="endArrow=none;html=1;rounded=0;" edge="1" parent="cT3CMjK7nl7czI4NIodN-5">
          <mxGeometry width="50" height="50" relative="1" as="geometry">
            <mxPoint x="10" y="40" as="sourcePoint" />
            <mxPoint x="10" as="targetPoint" />
          </mxGeometry>
        </mxCell>
        <mxCell id="cT3CMjK7nl7czI4NIodN-7" value="" style="endArrow=none;html=1;rounded=0;" edge="1" parent="cT3CMjK7nl7czI4NIodN-5">
          <mxGeometry width="50" height="50" relative="1" as="geometry">
            <mxPoint as="sourcePoint" />
            <mxPoint x="20" as="targetPoint" />
          </mxGeometry>
        </mxCell>
        <mxCell id="cT3CMjK7nl7czI4NIodN-8" value="" style="endArrow=none;html=1;rounded=0;" edge="1" parent="cT3CMjK7nl7czI4NIodN-5">
          <mxGeometry width="50" height="50" relative="1" as="geometry">
            <mxPoint y="40" as="sourcePoint" />
            <mxPoint x="20" y="40" as="targetPoint" />
          </mxGeometry>
        </mxCell>
        <mxCell id="cT3CMjK7nl7czI4NIodN-9" value="" style="group" vertex="1" connectable="0" parent="1">
          <mxGeometry x="240" y="870" width="20" height="40" as="geometry" />
        </mxCell>
        <mxCell id="cT3CMjK7nl7czI4NIodN-10" value="" style="endArrow=none;html=1;rounded=0;" edge="1" parent="cT3CMjK7nl7czI4NIodN-9">
          <mxGeometry width="50" height="50" relative="1" as="geometry">
            <mxPoint x="10" y="40" as="sourcePoint" />
            <mxPoint x="10" as="targetPoint" />
          </mxGeometry>
        </mxCell>
        <mxCell id="cT3CMjK7nl7czI4NIodN-11" value="" style="endArrow=none;html=1;rounded=0;" edge="1" parent="cT3CMjK7nl7czI4NIodN-9">
          <mxGeometry width="50" height="50" relative="1" as="geometry">
            <mxPoint as="sourcePoint" />
            <mxPoint x="20" as="targetPoint" />
          </mxGeometry>
        </mxCell>
        <mxCell id="cT3CMjK7nl7czI4NIodN-12" value="" style="endArrow=none;html=1;rounded=0;" edge="1" parent="cT3CMjK7nl7czI4NIodN-9">
          <mxGeometry width="50" height="50" relative="1" as="geometry">
            <mxPoint y="40" as="sourcePoint" />
            <mxPoint x="20" y="40" as="targetPoint" />
          </mxGeometry>
        </mxCell>
        <mxCell id="cT3CMjK7nl7czI4NIodN-13" value="" style="endArrow=classic;html=1;rounded=0;" edge="1" parent="1">
          <mxGeometry width="50" height="50" relative="1" as="geometry">
            <mxPoint x="180" y="890" as="sourcePoint" />
            <mxPoint x="250" y="890" as="targetPoint" />
          </mxGeometry>
        </mxCell>
        <mxCell id="cT3CMjK7nl7czI4NIodN-15" value="" style="endArrow=classic;html=1;rounded=0;" edge="1" parent="1">
          <mxGeometry width="50" height="50" relative="1" as="geometry">
            <mxPoint x="180" y="689.71" as="sourcePoint" />
            <mxPoint x="250" y="689.71" as="targetPoint" />
          </mxGeometry>
        </mxCell>
        <mxCell id="cT3CMjK7nl7czI4NIodN-16" value="" style="endArrow=classic;html=1;rounded=0;" edge="1" parent="1">
          <mxGeometry width="50" height="50" relative="1" as="geometry">
            <mxPoint x="180" y="619.71" as="sourcePoint" />
            <mxPoint x="250" y="619.71" as="targetPoint" />
          </mxGeometry>
        </mxCell>
        <mxCell id="cT3CMjK7nl7czI4NIodN-17" value="" style="group" vertex="1" connectable="0" parent="1">
          <mxGeometry x="670" y="670" width="20" height="40" as="geometry" />
        </mxCell>
        <mxCell id="cT3CMjK7nl7czI4NIodN-18" value="" style="endArrow=none;html=1;rounded=0;" edge="1" parent="cT3CMjK7nl7czI4NIodN-17">
          <mxGeometry width="50" height="50" relative="1" as="geometry">
            <mxPoint x="10" y="40" as="sourcePoint" />
            <mxPoint x="10" as="targetPoint" />
          </mxGeometry>
        </mxCell>
        <mxCell id="cT3CMjK7nl7czI4NIodN-19" value="" style="endArrow=none;html=1;rounded=0;" edge="1" parent="cT3CMjK7nl7czI4NIodN-17">
          <mxGeometry width="50" height="50" relative="1" as="geometry">
            <mxPoint as="sourcePoint" />
            <mxPoint x="20" as="targetPoint" />
          </mxGeometry>
        </mxCell>
        <mxCell id="cT3CMjK7nl7czI4NIodN-20" value="" style="endArrow=none;html=1;rounded=0;" edge="1" parent="cT3CMjK7nl7czI4NIodN-17">
          <mxGeometry width="50" height="50" relative="1" as="geometry">
            <mxPoint y="40" as="sourcePoint" />
            <mxPoint x="20" y="40" as="targetPoint" />
          </mxGeometry>
        </mxCell>
        <mxCell id="cT3CMjK7nl7czI4NIodN-25" value="" style="endArrow=classic;html=1;rounded=0;" edge="1" parent="1">
          <mxGeometry width="50" height="50" relative="1" as="geometry">
            <mxPoint x="610" y="689.71" as="sourcePoint" />
            <mxPoint x="680" y="689.71" as="targetPoint" />
          </mxGeometry>
        </mxCell>
        <mxCell id="cT3CMjK7nl7czI4NIodN-26" value="" style="group" vertex="1" connectable="0" parent="1">
          <mxGeometry x="670" y="840" width="20" height="40" as="geometry" />
        </mxCell>
        <mxCell id="cT3CMjK7nl7czI4NIodN-27" value="" style="endArrow=none;html=1;rounded=0;" edge="1" parent="cT3CMjK7nl7czI4NIodN-26">
          <mxGeometry width="50" height="50" relative="1" as="geometry">
            <mxPoint x="10" y="40" as="sourcePoint" />
            <mxPoint x="10" as="targetPoint" />
          </mxGeometry>
        </mxCell>
        <mxCell id="cT3CMjK7nl7czI4NIodN-28" value="" style="endArrow=none;html=1;rounded=0;" edge="1" parent="cT3CMjK7nl7czI4NIodN-26">
          <mxGeometry width="50" height="50" relative="1" as="geometry">
            <mxPoint as="sourcePoint" />
            <mxPoint x="20" as="targetPoint" />
          </mxGeometry>
        </mxCell>
        <mxCell id="cT3CMjK7nl7czI4NIodN-29" value="" style="endArrow=none;html=1;rounded=0;" edge="1" parent="cT3CMjK7nl7czI4NIodN-26">
          <mxGeometry width="50" height="50" relative="1" as="geometry">
            <mxPoint y="40" as="sourcePoint" />
            <mxPoint x="20" y="40" as="targetPoint" />
          </mxGeometry>
        </mxCell>
        <mxCell id="cT3CMjK7nl7czI4NIodN-30" value="" style="endArrow=classic;html=1;rounded=0;" edge="1" parent="1">
          <mxGeometry width="50" height="50" relative="1" as="geometry">
            <mxPoint x="610" y="859.71" as="sourcePoint" />
            <mxPoint x="680" y="859.71" as="targetPoint" />
          </mxGeometry>
        </mxCell>
        <mxCell id="cT3CMjK7nl7czI4NIodN-31" value="" style="group" vertex="1" connectable="0" parent="1">
          <mxGeometry x="670" y="910" width="20" height="40" as="geometry" />
        </mxCell>
        <mxCell id="cT3CMjK7nl7czI4NIodN-32" value="" style="endArrow=none;html=1;rounded=0;" edge="1" parent="cT3CMjK7nl7czI4NIodN-31">
          <mxGeometry width="50" height="50" relative="1" as="geometry">
            <mxPoint x="10" y="40" as="sourcePoint" />
            <mxPoint x="10" as="targetPoint" />
          </mxGeometry>
        </mxCell>
        <mxCell id="cT3CMjK7nl7czI4NIodN-33" value="" style="endArrow=none;html=1;rounded=0;" edge="1" parent="cT3CMjK7nl7czI4NIodN-31">
          <mxGeometry width="50" height="50" relative="1" as="geometry">
            <mxPoint as="sourcePoint" />
            <mxPoint x="20" as="targetPoint" />
          </mxGeometry>
        </mxCell>
        <mxCell id="cT3CMjK7nl7czI4NIodN-34" value="" style="endArrow=none;html=1;rounded=0;" edge="1" parent="cT3CMjK7nl7czI4NIodN-31">
          <mxGeometry width="50" height="50" relative="1" as="geometry">
            <mxPoint y="40" as="sourcePoint" />
            <mxPoint x="20" y="40" as="targetPoint" />
          </mxGeometry>
        </mxCell>
        <mxCell id="cT3CMjK7nl7czI4NIodN-35" value="" style="endArrow=classic;html=1;rounded=0;" edge="1" parent="1">
          <mxGeometry width="50" height="50" relative="1" as="geometry">
            <mxPoint x="610" y="929.71" as="sourcePoint" />
            <mxPoint x="680" y="929.71" as="targetPoint" />
          </mxGeometry>
        </mxCell>
        <mxCell id="cT3CMjK7nl7czI4NIodN-36" value="" style="group;rotation=90;" vertex="1" connectable="0" parent="1">
          <mxGeometry x="380" y="780" width="20" height="40" as="geometry" />
        </mxCell>
        <mxCell id="cT3CMjK7nl7czI4NIodN-37" value="" style="endArrow=none;html=1;rounded=0;" edge="1" parent="cT3CMjK7nl7czI4NIodN-36">
          <mxGeometry width="50" height="50" relative="1" as="geometry">
            <mxPoint x="-10" y="20" as="sourcePoint" />
            <mxPoint x="30" y="20" as="targetPoint" />
          </mxGeometry>
        </mxCell>
        <mxCell id="cT3CMjK7nl7czI4NIodN-38" value="" style="endArrow=none;html=1;rounded=0;" edge="1" parent="cT3CMjK7nl7czI4NIodN-36">
          <mxGeometry width="50" height="50" relative="1" as="geometry">
            <mxPoint x="30" y="10" as="sourcePoint" />
            <mxPoint x="30" y="30" as="targetPoint" />
          </mxGeometry>
        </mxCell>
        <mxCell id="cT3CMjK7nl7czI4NIodN-39" value="" style="endArrow=none;html=1;rounded=0;" edge="1" parent="cT3CMjK7nl7czI4NIodN-36">
          <mxGeometry width="50" height="50" relative="1" as="geometry">
            <mxPoint x="-10" y="10" as="sourcePoint" />
            <mxPoint x="-10" y="30" as="targetPoint" />
          </mxGeometry>
        </mxCell>
        <mxCell id="cT3CMjK7nl7czI4NIodN-40" value="" style="group;rotation=90;" vertex="1" connectable="0" parent="1">
          <mxGeometry x="440" y="780" width="20" height="40" as="geometry" />
        </mxCell>
        <mxCell id="cT3CMjK7nl7czI4NIodN-41" value="" style="endArrow=none;html=1;rounded=0;" edge="1" parent="cT3CMjK7nl7czI4NIodN-40">
          <mxGeometry width="50" height="50" relative="1" as="geometry">
            <mxPoint x="-10" y="20" as="sourcePoint" />
            <mxPoint x="30" y="20" as="targetPoint" />
          </mxGeometry>
        </mxCell>
        <mxCell id="cT3CMjK7nl7czI4NIodN-42" value="" style="endArrow=none;html=1;rounded=0;" edge="1" parent="cT3CMjK7nl7czI4NIodN-40">
          <mxGeometry width="50" height="50" relative="1" as="geometry">
            <mxPoint x="30" y="10" as="sourcePoint" />
            <mxPoint x="30" y="30" as="targetPoint" />
          </mxGeometry>
        </mxCell>
        <mxCell id="cT3CMjK7nl7czI4NIodN-43" value="" style="endArrow=none;html=1;rounded=0;" edge="1" parent="cT3CMjK7nl7czI4NIodN-40">
          <mxGeometry width="50" height="50" relative="1" as="geometry">
            <mxPoint x="-10" y="10" as="sourcePoint" />
            <mxPoint x="-10" y="30" as="targetPoint" />
          </mxGeometry>
        </mxCell>
        <mxCell id="cT3CMjK7nl7czI4NIodN-44" value="" style="endArrow=classic;html=1;rounded=0;exitX=0.006;exitY=0.171;exitDx=0;exitDy=0;exitPerimeter=0;startArrow=none;startFill=0;endFill=1;" edge="1" parent="1">
          <mxGeometry width="50" height="50" relative="1" as="geometry">
            <mxPoint x="450" y="770" as="sourcePoint" />
            <mxPoint x="450" y="800" as="targetPoint" />
          </mxGeometry>
        </mxCell>
        <mxCell id="cT3CMjK7nl7czI4NIodN-45" value="" style="endArrow=classic;html=1;rounded=0;exitX=0.006;exitY=0.171;exitDx=0;exitDy=0;exitPerimeter=0;startArrow=none;startFill=0;endFill=1;" edge="1" parent="1">
          <mxGeometry width="50" height="50" relative="1" as="geometry">
            <mxPoint x="389.83" y="770" as="sourcePoint" />
            <mxPoint x="389.83" y="800" as="targetPoint" />
          </mxGeometry>
        </mxCell>
        <mxCell id="xdcX0u3YDxUVMjTht0ej-1" value="" style="endArrow=none;html=1;rounded=0;entryX=0.43;entryY=0.015;entryDx=0;entryDy=0;startArrow=classic;startFill=1;endFill=0;entryPerimeter=0;" edge="1" parent="1">
          <mxGeometry width="50" height="50" relative="1" as="geometry">
            <mxPoint x="530" y="770" as="sourcePoint" />
            <mxPoint x="530" y="851" as="targetPoint" />
          </mxGeometry>
        </mxCell>
        <mxCell id="xdcX0u3YDxUVMjTht0ej-2" value="" style="group;rotation=90;" vertex="1" connectable="0" parent="1">
          <mxGeometry x="520" y="780" width="20" height="40" as="geometry" />
        </mxCell>
        <mxCell id="xdcX0u3YDxUVMjTht0ej-3" value="" style="endArrow=none;html=1;rounded=0;" edge="1" parent="xdcX0u3YDxUVMjTht0ej-2">
          <mxGeometry width="50" height="50" relative="1" as="geometry">
            <mxPoint x="-10" y="20" as="sourcePoint" />
            <mxPoint x="30" y="20" as="targetPoint" />
          </mxGeometry>
        </mxCell>
        <mxCell id="xdcX0u3YDxUVMjTht0ej-4" value="" style="endArrow=none;html=1;rounded=0;" edge="1" parent="xdcX0u3YDxUVMjTht0ej-2">
          <mxGeometry width="50" height="50" relative="1" as="geometry">
            <mxPoint x="30" y="10" as="sourcePoint" />
            <mxPoint x="30" y="30" as="targetPoint" />
          </mxGeometry>
        </mxCell>
        <mxCell id="xdcX0u3YDxUVMjTht0ej-5" value="" style="endArrow=none;html=1;rounded=0;" edge="1" parent="xdcX0u3YDxUVMjTht0ej-2">
          <mxGeometry width="50" height="50" relative="1" as="geometry">
            <mxPoint x="-10" y="10" as="sourcePoint" />
            <mxPoint x="-10" y="30" as="targetPoint" />
          </mxGeometry>
        </mxCell>
        <mxCell id="xdcX0u3YDxUVMjTht0ej-7" value="" style="endArrow=none;html=1;rounded=0;exitX=0.006;exitY=0.171;exitDx=0;exitDy=0;exitPerimeter=0;startArrow=classic;startFill=1;endFill=0;" edge="1" parent="xdcX0u3YDxUVMjTht0ej-2">
          <mxGeometry width="50" height="50" relative="1" as="geometry">
            <mxPoint x="9.860000000000014" y="20" as="sourcePoint" />
            <mxPoint x="9.860000000000014" y="50" as="targetPoint" />
          </mxGeometry>
        </mxCell>
        <mxCell id="xdcX0u3YDxUVMjTht0ej-6" value="" style="endArrow=none;html=1;rounded=0;exitX=0.006;exitY=0.171;exitDx=0;exitDy=0;exitPerimeter=0;startArrow=classic;startFill=1;endFill=0;" edge="1" parent="1">
          <mxGeometry width="50" height="50" relative="1" as="geometry">
            <mxPoint x="530" y="770" as="sourcePoint" />
            <mxPoint x="530" y="800" as="targetPoint" />
          </mxGeometry>
        </mxCell>
        <mxCell id="xdcX0u3YDxUVMjTht0ej-8" value="Seuil" style="text;html=1;align=center;verticalAlign=middle;resizable=0;points=[];autosize=1;strokeColor=none;fillColor=none;rotation=90;" vertex="1" parent="1">
          <mxGeometry x="540" y="785" width="50" height="30" as="geometry" />
        </mxCell>
      </root>
    </mxGraphModel>
  </diagram>
  <diagram id="p8J1kgj8r8aRHYHf71Mo" name="Raffinement">
    <mxGraphModel dx="1233" dy="713" grid="1" gridSize="10" guides="1" tooltips="1" connect="1" arrows="1" fold="1" page="1" pageScale="1" pageWidth="827" pageHeight="1169" math="0" shadow="0">
      <root>
        <mxCell id="0" />
        <mxCell id="1" parent="0" />
        <mxCell id="yPc4KzP2or8DtWN674_t-1" value="" style="rounded=0;whiteSpace=wrap;html=1;" vertex="1" parent="1">
          <mxGeometry x="170" y="235" width="400" height="525" as="geometry" />
        </mxCell>
        <mxCell id="yPc4KzP2or8DtWN674_t-14" value="" style="rounded=1;whiteSpace=wrap;html=1;" vertex="1" parent="1">
          <mxGeometry x="210" y="500" width="330" height="230" as="geometry" />
        </mxCell>
        <mxCell id="yPc4KzP2or8DtWN674_t-15" value="IHM" style="rounded=1;whiteSpace=wrap;html=1;" vertex="1" parent="1">
          <mxGeometry x="210" y="260" width="320" height="160" as="geometry" />
        </mxCell>
        <mxCell id="yPc4KzP2or8DtWN674_t-3" value="" style="endArrow=classic;html=1;rounded=0;entryX=-0.02;entryY=0.461;entryDx=0;entryDy=0;entryPerimeter=0;startArrow=none;startFill=0;endFill=1;" edge="1" parent="1">
          <mxGeometry width="50" height="50" relative="1" as="geometry">
            <mxPoint x="100" y="340" as="sourcePoint" />
            <mxPoint x="170" y="340.18000000000006" as="targetPoint" />
          </mxGeometry>
        </mxCell>
        <mxCell id="yPc4KzP2or8DtWN674_t-9" value="SeuilBlower" style="text;html=1;align=center;verticalAlign=middle;resizable=0;points=[];autosize=1;strokeColor=none;fillColor=none;" vertex="1" parent="1">
          <mxGeometry x="55" y="290" width="90" height="30" as="geometry" />
        </mxCell>
        <mxCell id="yPc4KzP2or8DtWN674_t-18" value="" style="endArrow=classic;html=1;rounded=0;exitX=0.007;exitY=0.396;exitDx=0;exitDy=0;exitPerimeter=0;entryX=0;entryY=0.785;entryDx=0;entryDy=0;startArrow=none;startFill=0;endFill=1;entryPerimeter=0;" edge="1" parent="1">
          <mxGeometry width="50" height="50" relative="1" as="geometry">
            <mxPoint x="171.4000000000001" y="340.48" as="sourcePoint" />
            <mxPoint x="210" y="340.60000000000014" as="targetPoint" />
          </mxGeometry>
        </mxCell>
        <mxCell id="yPc4KzP2or8DtWN674_t-34" value="" style="group" vertex="1" connectable="0" parent="1">
          <mxGeometry x="90" y="320" width="20" height="40" as="geometry" />
        </mxCell>
        <mxCell id="yPc4KzP2or8DtWN674_t-35" value="" style="endArrow=none;html=1;rounded=0;" edge="1" parent="yPc4KzP2or8DtWN674_t-34">
          <mxGeometry width="50" height="50" relative="1" as="geometry">
            <mxPoint x="10" y="40" as="sourcePoint" />
            <mxPoint x="10" as="targetPoint" />
          </mxGeometry>
        </mxCell>
        <mxCell id="yPc4KzP2or8DtWN674_t-36" value="" style="endArrow=none;html=1;rounded=0;" edge="1" parent="yPc4KzP2or8DtWN674_t-34">
          <mxGeometry width="50" height="50" relative="1" as="geometry">
            <mxPoint as="sourcePoint" />
            <mxPoint x="20" as="targetPoint" />
          </mxGeometry>
        </mxCell>
        <mxCell id="yPc4KzP2or8DtWN674_t-37" value="" style="endArrow=none;html=1;rounded=0;" edge="1" parent="yPc4KzP2or8DtWN674_t-34">
          <mxGeometry width="50" height="50" relative="1" as="geometry">
            <mxPoint y="40" as="sourcePoint" />
            <mxPoint x="20" y="40" as="targetPoint" />
          </mxGeometry>
        </mxCell>
        <mxCell id="WVdSrWlh_469kjFZx53Y-10" value="Asservissement Blower" style="rounded=0;whiteSpace=wrap;html=1;" vertex="1" parent="1">
          <mxGeometry x="380" y="595" width="150" height="45" as="geometry" />
        </mxCell>
        <mxCell id="WVdSrWlh_469kjFZx53Y-15" style="edgeStyle=orthogonalEdgeStyle;rounded=0;orthogonalLoop=1;jettySize=auto;html=1;entryX=0.5;entryY=1;entryDx=0;entryDy=0;dashed=1;endArrow=none;endFill=0;" edge="1" parent="1" source="WVdSrWlh_469kjFZx53Y-11" target="WVdSrWlh_469kjFZx53Y-10">
          <mxGeometry relative="1" as="geometry" />
        </mxCell>
        <mxCell id="WVdSrWlh_469kjFZx53Y-11" value="TimerMoteur" style="rounded=0;whiteSpace=wrap;html=1;" vertex="1" parent="1">
          <mxGeometry x="410" y="675" width="90" height="45" as="geometry" />
        </mxCell>
        <mxCell id="WVdSrWlh_469kjFZx53Y-14" style="edgeStyle=orthogonalEdgeStyle;rounded=0;orthogonalLoop=1;jettySize=auto;html=1;entryX=0.193;entryY=0.983;entryDx=0;entryDy=0;entryPerimeter=0;dashed=1;endArrow=none;endFill=0;" edge="1" parent="1" source="WVdSrWlh_469kjFZx53Y-12" target="WVdSrWlh_469kjFZx53Y-13">
          <mxGeometry relative="1" as="geometry" />
        </mxCell>
        <mxCell id="WVdSrWlh_469kjFZx53Y-12" value="TimerMesure" style="rounded=0;whiteSpace=wrap;html=1;" vertex="1" parent="1">
          <mxGeometry x="255" y="675" width="90" height="45" as="geometry" />
        </mxCell>
        <mxCell id="yPc4KzP2or8DtWN674_t-8" value="CmdBlower" style="text;html=1;align=center;verticalAlign=middle;resizable=0;points=[];autosize=1;strokeColor=none;fillColor=none;" vertex="1" parent="1">
          <mxGeometry x="605" y="570" width="90" height="30" as="geometry" />
        </mxCell>
        <mxCell id="yPc4KzP2or8DtWN674_t-19" value="" style="endArrow=classic;html=1;rounded=0;exitX=1.002;exitY=0.544;exitDx=0;exitDy=0;startArrow=none;startFill=0;endFill=1;exitPerimeter=0;" edge="1" parent="1" source="WVdSrWlh_469kjFZx53Y-10">
          <mxGeometry width="50" height="50" relative="1" as="geometry">
            <mxPoint x="540" y="620" as="sourcePoint" />
            <mxPoint x="570" y="620" as="targetPoint" />
          </mxGeometry>
        </mxCell>
        <mxCell id="yPc4KzP2or8DtWN674_t-41" value="" style="group" vertex="1" connectable="0" parent="1">
          <mxGeometry x="640" y="600" width="20" height="40" as="geometry" />
        </mxCell>
        <mxCell id="yPc4KzP2or8DtWN674_t-42" value="" style="endArrow=none;html=1;rounded=0;" edge="1" parent="yPc4KzP2or8DtWN674_t-41">
          <mxGeometry width="50" height="50" relative="1" as="geometry">
            <mxPoint x="10" y="40" as="sourcePoint" />
            <mxPoint x="10" as="targetPoint" />
          </mxGeometry>
        </mxCell>
        <mxCell id="yPc4KzP2or8DtWN674_t-43" value="" style="endArrow=none;html=1;rounded=0;" edge="1" parent="yPc4KzP2or8DtWN674_t-41">
          <mxGeometry width="50" height="50" relative="1" as="geometry">
            <mxPoint as="sourcePoint" />
            <mxPoint x="20" as="targetPoint" />
          </mxGeometry>
        </mxCell>
        <mxCell id="yPc4KzP2or8DtWN674_t-44" value="" style="endArrow=none;html=1;rounded=0;" edge="1" parent="yPc4KzP2or8DtWN674_t-41">
          <mxGeometry width="50" height="50" relative="1" as="geometry">
            <mxPoint y="40" as="sourcePoint" />
            <mxPoint x="20" y="40" as="targetPoint" />
          </mxGeometry>
        </mxCell>
        <mxCell id="yPc4KzP2or8DtWN674_t-45" value="" style="endArrow=classic;html=1;rounded=0;" edge="1" parent="1">
          <mxGeometry width="50" height="50" relative="1" as="geometry">
            <mxPoint x="570" y="620" as="sourcePoint" />
            <mxPoint x="650" y="619.71" as="targetPoint" />
          </mxGeometry>
        </mxCell>
        <mxCell id="WVdSrWlh_469kjFZx53Y-13" value="Gestion Mesure" style="rounded=0;whiteSpace=wrap;html=1;" vertex="1" parent="1">
          <mxGeometry x="250" y="510" width="260" height="45" as="geometry" />
        </mxCell>
        <mxCell id="WVdSrWlh_469kjFZx53Y-17" value="" style="triangle;whiteSpace=wrap;html=1;rotation=-90;" vertex="1" parent="1">
          <mxGeometry x="295" y="612.5" width="10" height="10" as="geometry" />
        </mxCell>
        <mxCell id="WVdSrWlh_469kjFZx53Y-18" value="" style="triangle;whiteSpace=wrap;html=1;rotation=-90;" vertex="1" parent="1">
          <mxGeometry x="450" y="650" width="10" height="10" as="geometry" />
        </mxCell>
        <mxCell id="yPc4KzP2or8DtWN674_t-22" value="" style="endArrow=classic;html=1;rounded=0;exitX=0.25;exitY=1;exitDx=0;exitDy=0;entryX=0.25;entryY=0;entryDx=0;entryDy=0;startArrow=none;startFill=0;endFill=1;" edge="1" parent="1">
          <mxGeometry width="50" height="50" relative="1" as="geometry">
            <mxPoint x="330" y="500" as="sourcePoint" />
            <mxPoint x="330" y="420" as="targetPoint" />
          </mxGeometry>
        </mxCell>
        <mxCell id="yPc4KzP2or8DtWN674_t-23" value="" style="endArrow=classic;html=1;rounded=0;exitX=0.75;exitY=1;exitDx=0;exitDy=0;entryX=0.75;entryY=0;entryDx=0;entryDy=0;startArrow=none;startFill=0;endFill=1;" edge="1" parent="1">
          <mxGeometry width="50" height="50" relative="1" as="geometry">
            <mxPoint x="270" y="500" as="sourcePoint" />
            <mxPoint x="270" y="420" as="targetPoint" />
          </mxGeometry>
        </mxCell>
        <mxCell id="yPc4KzP2or8DtWN674_t-24" value="Débit" style="text;html=1;align=center;verticalAlign=middle;resizable=0;points=[];autosize=1;strokeColor=none;fillColor=none;rotation=-270;" vertex="1" parent="1">
          <mxGeometry x="340" y="455" width="50" height="30" as="geometry" />
        </mxCell>
        <mxCell id="yPc4KzP2or8DtWN674_t-25" value="Pression" style="text;html=1;align=center;verticalAlign=middle;resizable=0;points=[];autosize=1;strokeColor=none;fillColor=none;rotation=-90;" vertex="1" parent="1">
          <mxGeometry x="200" y="450" width="70" height="30" as="geometry" />
        </mxCell>
        <mxCell id="yPc4KzP2or8DtWN674_t-56" value="" style="group;rotation=-90;" vertex="1" connectable="0" parent="1">
          <mxGeometry x="320" y="450" width="20" height="40" as="geometry" />
        </mxCell>
        <mxCell id="yPc4KzP2or8DtWN674_t-57" value="" style="endArrow=none;html=1;rounded=0;" edge="1" parent="yPc4KzP2or8DtWN674_t-56">
          <mxGeometry width="50" height="50" relative="1" as="geometry">
            <mxPoint x="30" y="20" as="sourcePoint" />
            <mxPoint x="-10" y="20" as="targetPoint" />
          </mxGeometry>
        </mxCell>
        <mxCell id="yPc4KzP2or8DtWN674_t-58" value="" style="endArrow=none;html=1;rounded=0;" edge="1" parent="yPc4KzP2or8DtWN674_t-56">
          <mxGeometry width="50" height="50" relative="1" as="geometry">
            <mxPoint x="-10" y="30" as="sourcePoint" />
            <mxPoint x="-10" y="10" as="targetPoint" />
          </mxGeometry>
        </mxCell>
        <mxCell id="yPc4KzP2or8DtWN674_t-59" value="" style="endArrow=none;html=1;rounded=0;" edge="1" parent="yPc4KzP2or8DtWN674_t-56">
          <mxGeometry width="50" height="50" relative="1" as="geometry">
            <mxPoint x="30" y="30" as="sourcePoint" />
            <mxPoint x="30" y="10" as="targetPoint" />
          </mxGeometry>
        </mxCell>
        <mxCell id="yPc4KzP2or8DtWN674_t-60" value="" style="group;rotation=-90;" vertex="1" connectable="0" parent="1">
          <mxGeometry x="260" y="450" width="20" height="40" as="geometry" />
        </mxCell>
        <mxCell id="yPc4KzP2or8DtWN674_t-61" value="" style="endArrow=none;html=1;rounded=0;" edge="1" parent="yPc4KzP2or8DtWN674_t-60">
          <mxGeometry width="50" height="50" relative="1" as="geometry">
            <mxPoint x="30" y="20" as="sourcePoint" />
            <mxPoint x="-10" y="20" as="targetPoint" />
          </mxGeometry>
        </mxCell>
        <mxCell id="yPc4KzP2or8DtWN674_t-62" value="" style="endArrow=none;html=1;rounded=0;" edge="1" parent="yPc4KzP2or8DtWN674_t-60">
          <mxGeometry width="50" height="50" relative="1" as="geometry">
            <mxPoint x="-10" y="30" as="sourcePoint" />
            <mxPoint x="-10" y="10" as="targetPoint" />
          </mxGeometry>
        </mxCell>
        <mxCell id="yPc4KzP2or8DtWN674_t-63" value="" style="endArrow=none;html=1;rounded=0;" edge="1" parent="yPc4KzP2or8DtWN674_t-60">
          <mxGeometry width="50" height="50" relative="1" as="geometry">
            <mxPoint x="30" y="30" as="sourcePoint" />
            <mxPoint x="30" y="10" as="targetPoint" />
          </mxGeometry>
        </mxCell>
        <mxCell id="yPc4KzP2or8DtWN674_t-64" value="" style="endArrow=classic;html=1;rounded=0;exitX=0.078;exitY=0.011;exitDx=0;exitDy=0;exitPerimeter=0;startArrow=none;startFill=0;endFill=1;" edge="1" parent="1" source="WVdSrWlh_469kjFZx53Y-13">
          <mxGeometry width="50" height="50" relative="1" as="geometry">
            <mxPoint x="270" y="500" as="sourcePoint" />
            <mxPoint x="270" y="470" as="targetPoint" />
          </mxGeometry>
        </mxCell>
        <mxCell id="yPc4KzP2or8DtWN674_t-65" value="" style="endArrow=classic;html=1;rounded=0;exitX=0.308;exitY=0.022;exitDx=0;exitDy=0;exitPerimeter=0;startArrow=none;startFill=0;endFill=1;" edge="1" parent="1" source="WVdSrWlh_469kjFZx53Y-13">
          <mxGeometry width="50" height="50" relative="1" as="geometry">
            <mxPoint x="330" y="500" as="sourcePoint" />
            <mxPoint x="330" y="470" as="targetPoint" />
          </mxGeometry>
        </mxCell>
        <mxCell id="WVdSrWlh_469kjFZx53Y-2" value="" style="group;rotation=-90;" vertex="1" connectable="0" parent="1">
          <mxGeometry x="480" y="451" width="20" height="40" as="geometry" />
        </mxCell>
        <mxCell id="WVdSrWlh_469kjFZx53Y-3" value="" style="endArrow=none;html=1;rounded=0;" edge="1" parent="WVdSrWlh_469kjFZx53Y-2">
          <mxGeometry width="50" height="50" relative="1" as="geometry">
            <mxPoint x="30" y="20" as="sourcePoint" />
            <mxPoint x="-10" y="20" as="targetPoint" />
          </mxGeometry>
        </mxCell>
        <mxCell id="WVdSrWlh_469kjFZx53Y-4" value="" style="endArrow=none;html=1;rounded=0;" edge="1" parent="WVdSrWlh_469kjFZx53Y-2">
          <mxGeometry width="50" height="50" relative="1" as="geometry">
            <mxPoint x="-10" y="30" as="sourcePoint" />
            <mxPoint x="-10" y="10" as="targetPoint" />
          </mxGeometry>
        </mxCell>
        <mxCell id="WVdSrWlh_469kjFZx53Y-5" value="" style="endArrow=none;html=1;rounded=0;" edge="1" parent="WVdSrWlh_469kjFZx53Y-2">
          <mxGeometry width="50" height="50" relative="1" as="geometry">
            <mxPoint x="30" y="30" as="sourcePoint" />
            <mxPoint x="30" y="10" as="targetPoint" />
          </mxGeometry>
        </mxCell>
        <mxCell id="WVdSrWlh_469kjFZx53Y-6" value="" style="endArrow=none;html=1;rounded=0;exitX=0.006;exitY=0.171;exitDx=0;exitDy=0;exitPerimeter=0;startArrow=classic;startFill=1;endFill=0;entryX=0.875;entryY=1.001;entryDx=0;entryDy=0;entryPerimeter=0;" edge="1" parent="WVdSrWlh_469kjFZx53Y-2" target="yPc4KzP2or8DtWN674_t-15">
          <mxGeometry width="50" height="50" relative="1" as="geometry">
            <mxPoint x="10" y="20" as="sourcePoint" />
            <mxPoint x="10" y="-10" as="targetPoint" />
          </mxGeometry>
        </mxCell>
        <mxCell id="WVdSrWlh_469kjFZx53Y-7" value="" style="endArrow=none;html=1;rounded=0;exitX=0.924;exitY=-0.007;exitDx=0;exitDy=0;exitPerimeter=0;startArrow=classic;startFill=1;endFill=0;" edge="1" parent="1" source="WVdSrWlh_469kjFZx53Y-13">
          <mxGeometry width="50" height="50" relative="1" as="geometry">
            <mxPoint x="490" y="501" as="sourcePoint" />
            <mxPoint x="490" y="471" as="targetPoint" />
          </mxGeometry>
        </mxCell>
        <mxCell id="WVdSrWlh_469kjFZx53Y-8" value="Seuil" style="text;html=1;align=center;verticalAlign=middle;resizable=0;points=[];autosize=1;strokeColor=none;fillColor=none;rotation=-90;" vertex="1" parent="1">
          <mxGeometry x="430" y="456" width="50" height="30" as="geometry" />
        </mxCell>
        <mxCell id="WVdSrWlh_469kjFZx53Y-21" value="" style="group;rotation=-90;" vertex="1" connectable="0" parent="1">
          <mxGeometry x="490" y="555" width="20" height="40" as="geometry" />
        </mxCell>
        <mxCell id="WVdSrWlh_469kjFZx53Y-22" value="" style="endArrow=none;html=1;rounded=0;" edge="1" parent="WVdSrWlh_469kjFZx53Y-21">
          <mxGeometry width="50" height="50" relative="1" as="geometry">
            <mxPoint x="30" y="20" as="sourcePoint" />
            <mxPoint x="-10" y="20" as="targetPoint" />
          </mxGeometry>
        </mxCell>
        <mxCell id="WVdSrWlh_469kjFZx53Y-23" value="" style="endArrow=none;html=1;rounded=0;" edge="1" parent="WVdSrWlh_469kjFZx53Y-21">
          <mxGeometry width="50" height="50" relative="1" as="geometry">
            <mxPoint x="-10" y="30" as="sourcePoint" />
            <mxPoint x="-10" y="10" as="targetPoint" />
          </mxGeometry>
        </mxCell>
        <mxCell id="WVdSrWlh_469kjFZx53Y-24" value="" style="endArrow=none;html=1;rounded=0;" edge="1" parent="WVdSrWlh_469kjFZx53Y-21">
          <mxGeometry width="50" height="50" relative="1" as="geometry">
            <mxPoint x="30" y="30" as="sourcePoint" />
            <mxPoint x="30" y="10" as="targetPoint" />
          </mxGeometry>
        </mxCell>
        <mxCell id="WVdSrWlh_469kjFZx53Y-25" value="" style="endArrow=none;html=1;rounded=0;startArrow=classic;startFill=1;endFill=0;entryX=0.885;entryY=1.004;entryDx=0;entryDy=0;entryPerimeter=0;" edge="1" parent="1">
          <mxGeometry width="50" height="50" relative="1" as="geometry">
            <mxPoint x="499.9" y="575" as="sourcePoint" />
            <mxPoint x="500.1" y="555.18" as="targetPoint" />
          </mxGeometry>
        </mxCell>
        <mxCell id="WVdSrWlh_469kjFZx53Y-26" value="" style="endArrow=none;html=1;rounded=0;startArrow=classic;startFill=1;endFill=0;entryX=0.885;entryY=1.004;entryDx=0;entryDy=0;entryPerimeter=0;" edge="1" parent="1">
          <mxGeometry width="50" height="50" relative="1" as="geometry">
            <mxPoint x="499.83" y="595" as="sourcePoint" />
            <mxPoint x="499.93" y="575" as="targetPoint" />
          </mxGeometry>
        </mxCell>
        <mxCell id="WVdSrWlh_469kjFZx53Y-27" value="Pilote" style="text;html=1;align=center;verticalAlign=middle;resizable=0;points=[];autosize=1;strokeColor=none;fillColor=none;rotation=-90;" vertex="1" parent="1">
          <mxGeometry x="440" y="560" width="50" height="30" as="geometry" />
        </mxCell>
        <mxCell id="WVdSrWlh_469kjFZx53Y-28" value="" style="group;rotation=-90;" vertex="1" connectable="0" parent="1">
          <mxGeometry x="400" y="555" width="20" height="40" as="geometry" />
        </mxCell>
        <mxCell id="WVdSrWlh_469kjFZx53Y-29" value="" style="endArrow=none;html=1;rounded=0;" edge="1" parent="WVdSrWlh_469kjFZx53Y-28">
          <mxGeometry width="50" height="50" relative="1" as="geometry">
            <mxPoint x="30" y="20" as="sourcePoint" />
            <mxPoint x="-10" y="20" as="targetPoint" />
          </mxGeometry>
        </mxCell>
        <mxCell id="WVdSrWlh_469kjFZx53Y-30" value="" style="endArrow=none;html=1;rounded=0;" edge="1" parent="WVdSrWlh_469kjFZx53Y-28">
          <mxGeometry width="50" height="50" relative="1" as="geometry">
            <mxPoint x="-10" y="30" as="sourcePoint" />
            <mxPoint x="-10" y="10" as="targetPoint" />
          </mxGeometry>
        </mxCell>
        <mxCell id="WVdSrWlh_469kjFZx53Y-31" value="" style="endArrow=none;html=1;rounded=0;" edge="1" parent="WVdSrWlh_469kjFZx53Y-28">
          <mxGeometry width="50" height="50" relative="1" as="geometry">
            <mxPoint x="30" y="30" as="sourcePoint" />
            <mxPoint x="30" y="10" as="targetPoint" />
          </mxGeometry>
        </mxCell>
        <mxCell id="WVdSrWlh_469kjFZx53Y-32" value="" style="endArrow=none;html=1;rounded=0;startArrow=classic;startFill=1;endFill=0;entryX=0.885;entryY=1.004;entryDx=0;entryDy=0;entryPerimeter=0;" edge="1" parent="1">
          <mxGeometry width="50" height="50" relative="1" as="geometry">
            <mxPoint x="409.9" y="575" as="sourcePoint" />
            <mxPoint x="410" y="555" as="targetPoint" />
          </mxGeometry>
        </mxCell>
        <mxCell id="WVdSrWlh_469kjFZx53Y-33" value="" style="endArrow=none;html=1;rounded=0;startArrow=classic;startFill=1;endFill=0;entryX=0.885;entryY=1.004;entryDx=0;entryDy=0;entryPerimeter=0;" edge="1" parent="1">
          <mxGeometry width="50" height="50" relative="1" as="geometry">
            <mxPoint x="409.83" y="595" as="sourcePoint" />
            <mxPoint x="409.93" y="575" as="targetPoint" />
          </mxGeometry>
        </mxCell>
        <mxCell id="WVdSrWlh_469kjFZx53Y-34" value="Limite" style="text;html=1;align=center;verticalAlign=middle;resizable=0;points=[];autosize=1;strokeColor=none;fillColor=none;rotation=-90;" vertex="1" parent="1">
          <mxGeometry x="345" y="560" width="60" height="30" as="geometry" />
        </mxCell>
        <mxCell id="WVdSrWlh_469kjFZx53Y-35" value="" style="endArrow=classic;html=1;rounded=0;exitX=0;exitY=0.369;exitDx=0;exitDy=0;exitPerimeter=0;entryX=0.002;entryY=0.222;entryDx=0;entryDy=0;entryPerimeter=0;" edge="1" parent="1" source="yPc4KzP2or8DtWN674_t-14" target="WVdSrWlh_469kjFZx53Y-13">
          <mxGeometry width="50" height="50" relative="1" as="geometry">
            <mxPoint x="210" y="580" as="sourcePoint" />
            <mxPoint x="370" y="600" as="targetPoint" />
            <Array as="points">
              <mxPoint x="220" y="585" />
              <mxPoint x="220" y="520" />
            </Array>
          </mxGeometry>
        </mxCell>
        <mxCell id="WVdSrWlh_469kjFZx53Y-36" value="" style="endArrow=classic;html=1;rounded=0;exitX=0;exitY=0.369;exitDx=0;exitDy=0;exitPerimeter=0;entryX=0;entryY=0.75;entryDx=0;entryDy=0;" edge="1" parent="1" target="WVdSrWlh_469kjFZx53Y-13">
          <mxGeometry width="50" height="50" relative="1" as="geometry">
            <mxPoint x="210" y="655" as="sourcePoint" />
            <mxPoint x="251" y="590" as="targetPoint" />
            <Array as="points">
              <mxPoint x="220" y="655" />
              <mxPoint x="230" y="655" />
              <mxPoint x="230" y="544" />
            </Array>
          </mxGeometry>
        </mxCell>
        <mxCell id="WVdSrWlh_469kjFZx53Y-37" value="TIM1" style="text;html=1;align=center;verticalAlign=middle;resizable=0;points=[];autosize=1;strokeColor=none;fillColor=none;rotation=90;" vertex="1" parent="1">
          <mxGeometry x="290" y="602.5" width="50" height="30" as="geometry" />
        </mxCell>
        <mxCell id="WVdSrWlh_469kjFZx53Y-38" value="TIM2" style="text;html=1;align=center;verticalAlign=middle;resizable=0;points=[];autosize=1;strokeColor=none;fillColor=none;rotation=90;" vertex="1" parent="1">
          <mxGeometry x="450" y="640" width="50" height="30" as="geometry" />
        </mxCell>
        <mxCell id="yPc4KzP2or8DtWN674_t-12" value="Affichage" style="text;html=1;align=center;verticalAlign=middle;resizable=0;points=[];autosize=1;strokeColor=none;fillColor=none;" vertex="1" parent="1">
          <mxGeometry x="605" y="260" width="70" height="30" as="geometry" />
        </mxCell>
        <mxCell id="yPc4KzP2or8DtWN674_t-13" value="Données" style="text;html=1;align=center;verticalAlign=middle;resizable=0;points=[];autosize=1;strokeColor=none;fillColor=none;" vertex="1" parent="1">
          <mxGeometry x="605" y="330" width="70" height="30" as="geometry" />
        </mxCell>
        <mxCell id="yPc4KzP2or8DtWN674_t-20" value="" style="endArrow=classic;html=1;rounded=0;exitX=0.006;exitY=0.171;exitDx=0;exitDy=0;exitPerimeter=0;entryX=0;entryY=0.25;entryDx=0;entryDy=0;startArrow=none;startFill=0;endFill=1;" edge="1" parent="1">
          <mxGeometry width="50" height="50" relative="1" as="geometry">
            <mxPoint x="530" y="310" as="sourcePoint" />
            <mxPoint x="569" y="310" as="targetPoint" />
          </mxGeometry>
        </mxCell>
        <mxCell id="yPc4KzP2or8DtWN674_t-21" value="" style="endArrow=classic;html=1;rounded=0;exitX=0.006;exitY=0.171;exitDx=0;exitDy=0;exitPerimeter=0;entryX=0;entryY=0.25;entryDx=0;entryDy=0;startArrow=none;startFill=0;endFill=1;" edge="1" parent="1">
          <mxGeometry width="50" height="50" relative="1" as="geometry">
            <mxPoint x="530" y="380" as="sourcePoint" />
            <mxPoint x="569" y="380" as="targetPoint" />
          </mxGeometry>
        </mxCell>
        <mxCell id="yPc4KzP2or8DtWN674_t-46" value="" style="group" vertex="1" connectable="0" parent="1">
          <mxGeometry x="630" y="290" width="20" height="40" as="geometry" />
        </mxCell>
        <mxCell id="yPc4KzP2or8DtWN674_t-47" value="" style="endArrow=none;html=1;rounded=0;" edge="1" parent="yPc4KzP2or8DtWN674_t-46">
          <mxGeometry width="50" height="50" relative="1" as="geometry">
            <mxPoint x="10" y="40" as="sourcePoint" />
            <mxPoint x="10" as="targetPoint" />
          </mxGeometry>
        </mxCell>
        <mxCell id="yPc4KzP2or8DtWN674_t-48" value="" style="endArrow=none;html=1;rounded=0;" edge="1" parent="yPc4KzP2or8DtWN674_t-46">
          <mxGeometry width="50" height="50" relative="1" as="geometry">
            <mxPoint as="sourcePoint" />
            <mxPoint x="20" as="targetPoint" />
          </mxGeometry>
        </mxCell>
        <mxCell id="yPc4KzP2or8DtWN674_t-49" value="" style="endArrow=none;html=1;rounded=0;" edge="1" parent="yPc4KzP2or8DtWN674_t-46">
          <mxGeometry width="50" height="50" relative="1" as="geometry">
            <mxPoint y="40" as="sourcePoint" />
            <mxPoint x="20" y="40" as="targetPoint" />
          </mxGeometry>
        </mxCell>
        <mxCell id="yPc4KzP2or8DtWN674_t-50" value="" style="endArrow=classic;html=1;rounded=0;" edge="1" parent="1">
          <mxGeometry width="50" height="50" relative="1" as="geometry">
            <mxPoint x="570" y="309.71000000000004" as="sourcePoint" />
            <mxPoint x="640" y="309.71000000000004" as="targetPoint" />
          </mxGeometry>
        </mxCell>
        <mxCell id="yPc4KzP2or8DtWN674_t-51" value="" style="group" vertex="1" connectable="0" parent="1">
          <mxGeometry x="630" y="360" width="20" height="40" as="geometry" />
        </mxCell>
        <mxCell id="yPc4KzP2or8DtWN674_t-52" value="" style="endArrow=none;html=1;rounded=0;" edge="1" parent="yPc4KzP2or8DtWN674_t-51">
          <mxGeometry width="50" height="50" relative="1" as="geometry">
            <mxPoint x="10" y="40" as="sourcePoint" />
            <mxPoint x="10" as="targetPoint" />
          </mxGeometry>
        </mxCell>
        <mxCell id="yPc4KzP2or8DtWN674_t-53" value="" style="endArrow=none;html=1;rounded=0;" edge="1" parent="yPc4KzP2or8DtWN674_t-51">
          <mxGeometry width="50" height="50" relative="1" as="geometry">
            <mxPoint as="sourcePoint" />
            <mxPoint x="20" as="targetPoint" />
          </mxGeometry>
        </mxCell>
        <mxCell id="yPc4KzP2or8DtWN674_t-54" value="" style="endArrow=none;html=1;rounded=0;" edge="1" parent="yPc4KzP2or8DtWN674_t-51">
          <mxGeometry width="50" height="50" relative="1" as="geometry">
            <mxPoint y="40" as="sourcePoint" />
            <mxPoint x="20" y="40" as="targetPoint" />
          </mxGeometry>
        </mxCell>
        <mxCell id="yPc4KzP2or8DtWN674_t-55" value="" style="endArrow=classic;html=1;rounded=0;" edge="1" parent="1">
          <mxGeometry width="50" height="50" relative="1" as="geometry">
            <mxPoint x="570" y="379.71000000000004" as="sourcePoint" />
            <mxPoint x="640" y="379.71000000000004" as="targetPoint" />
          </mxGeometry>
        </mxCell>
        <mxCell id="yPc4KzP2or8DtWN674_t-4" value="" style="endArrow=classic;html=1;rounded=0;entryX=-0.02;entryY=0.461;entryDx=0;entryDy=0;entryPerimeter=0;startArrow=none;startFill=0;endFill=1;" edge="1" parent="1">
          <mxGeometry width="50" height="50" relative="1" as="geometry">
            <mxPoint x="100" y="655" as="sourcePoint" />
            <mxPoint x="171" y="655" as="targetPoint" />
          </mxGeometry>
        </mxCell>
        <mxCell id="yPc4KzP2or8DtWN674_t-5" value="" style="endArrow=classic;html=1;rounded=0;entryX=-0.02;entryY=0.461;entryDx=0;entryDy=0;entryPerimeter=0;startArrow=none;startFill=0;endFill=1;" edge="1" parent="1">
          <mxGeometry width="50" height="50" relative="1" as="geometry">
            <mxPoint x="100" y="585" as="sourcePoint" />
            <mxPoint x="170" y="585" as="targetPoint" />
          </mxGeometry>
        </mxCell>
        <mxCell id="yPc4KzP2or8DtWN674_t-10" value="Airflow" style="text;html=1;align=center;verticalAlign=middle;resizable=0;points=[];autosize=1;strokeColor=none;fillColor=none;" vertex="1" parent="1">
          <mxGeometry x="70" y="605" width="60" height="30" as="geometry" />
        </mxCell>
        <mxCell id="yPc4KzP2or8DtWN674_t-11" value="Pressure" style="text;html=1;align=center;verticalAlign=middle;resizable=0;points=[];autosize=1;strokeColor=none;fillColor=none;" vertex="1" parent="1">
          <mxGeometry x="65" y="535" width="70" height="30" as="geometry" />
        </mxCell>
        <mxCell id="yPc4KzP2or8DtWN674_t-16" value="" style="endArrow=classic;html=1;rounded=0;exitX=0.006;exitY=0.171;exitDx=0;exitDy=0;exitPerimeter=0;entryX=0;entryY=0.25;entryDx=0;entryDy=0;startArrow=none;startFill=0;endFill=1;" edge="1" parent="1">
          <mxGeometry width="50" height="50" relative="1" as="geometry">
            <mxPoint x="171.20000000000005" y="584.98" as="sourcePoint" />
            <mxPoint x="210" y="585" as="targetPoint" />
          </mxGeometry>
        </mxCell>
        <mxCell id="yPc4KzP2or8DtWN674_t-17" value="" style="endArrow=classic;html=1;rounded=0;exitX=0.006;exitY=0.171;exitDx=0;exitDy=0;exitPerimeter=0;entryX=0;entryY=0.25;entryDx=0;entryDy=0;startArrow=none;startFill=0;endFill=1;" edge="1" parent="1">
          <mxGeometry width="50" height="50" relative="1" as="geometry">
            <mxPoint x="171" y="655" as="sourcePoint" />
            <mxPoint x="210" y="655" as="targetPoint" />
          </mxGeometry>
        </mxCell>
        <mxCell id="yPc4KzP2or8DtWN674_t-26" value="" style="group" vertex="1" connectable="0" parent="1">
          <mxGeometry x="90" y="565" width="20" height="40" as="geometry" />
        </mxCell>
        <mxCell id="yPc4KzP2or8DtWN674_t-27" value="" style="endArrow=none;html=1;rounded=0;" edge="1" parent="yPc4KzP2or8DtWN674_t-26">
          <mxGeometry width="50" height="50" relative="1" as="geometry">
            <mxPoint x="10" y="40" as="sourcePoint" />
            <mxPoint x="10" as="targetPoint" />
          </mxGeometry>
        </mxCell>
        <mxCell id="yPc4KzP2or8DtWN674_t-28" value="" style="endArrow=none;html=1;rounded=0;" edge="1" parent="yPc4KzP2or8DtWN674_t-26">
          <mxGeometry width="50" height="50" relative="1" as="geometry">
            <mxPoint as="sourcePoint" />
            <mxPoint x="20" as="targetPoint" />
          </mxGeometry>
        </mxCell>
        <mxCell id="yPc4KzP2or8DtWN674_t-29" value="" style="endArrow=none;html=1;rounded=0;" edge="1" parent="yPc4KzP2or8DtWN674_t-26">
          <mxGeometry width="50" height="50" relative="1" as="geometry">
            <mxPoint y="40" as="sourcePoint" />
            <mxPoint x="20" y="40" as="targetPoint" />
          </mxGeometry>
        </mxCell>
        <mxCell id="yPc4KzP2or8DtWN674_t-30" value="" style="group" vertex="1" connectable="0" parent="1">
          <mxGeometry x="91" y="635" width="20" height="40" as="geometry" />
        </mxCell>
        <mxCell id="yPc4KzP2or8DtWN674_t-31" value="" style="endArrow=none;html=1;rounded=0;" edge="1" parent="yPc4KzP2or8DtWN674_t-30">
          <mxGeometry width="50" height="50" relative="1" as="geometry">
            <mxPoint x="10" y="40" as="sourcePoint" />
            <mxPoint x="10" as="targetPoint" />
          </mxGeometry>
        </mxCell>
        <mxCell id="yPc4KzP2or8DtWN674_t-32" value="" style="endArrow=none;html=1;rounded=0;" edge="1" parent="yPc4KzP2or8DtWN674_t-30">
          <mxGeometry width="50" height="50" relative="1" as="geometry">
            <mxPoint as="sourcePoint" />
            <mxPoint x="20" as="targetPoint" />
          </mxGeometry>
        </mxCell>
        <mxCell id="yPc4KzP2or8DtWN674_t-33" value="" style="endArrow=none;html=1;rounded=0;" edge="1" parent="yPc4KzP2or8DtWN674_t-30">
          <mxGeometry width="50" height="50" relative="1" as="geometry">
            <mxPoint y="40" as="sourcePoint" />
            <mxPoint x="20" y="40" as="targetPoint" />
          </mxGeometry>
        </mxCell>
      </root>
    </mxGraphModel>
  </diagram>
  <diagram id="JiBLPyVzLX6hZn4-AIei" name="Réalisation matérielle">
    <mxGraphModel dx="1418" dy="820" grid="1" gridSize="10" guides="1" tooltips="1" connect="1" arrows="1" fold="1" page="1" pageScale="1" pageWidth="827" pageHeight="1169" math="0" shadow="0">
      <root>
        <mxCell id="0" />
        <mxCell id="1" parent="0" />
        <mxCell id="mJ8OBomRuR8AL3LP7z2l-1" value="Processeur Programmable 32 bits&lt;br&gt;&lt;br&gt;(Contrainte : STM32)&lt;br&gt;&lt;br&gt;&lt;div&gt;128 Kbytes SRAM&lt;/div&gt;&lt;div&gt;512 Kbytes Flash&lt;/div&gt;&lt;div&gt;&lt;div&gt;81 I/O ports&lt;/div&gt;&lt;div&gt;4 to 26 MHz Clock&lt;/div&gt;&lt;div&gt;I2C, SPI, UART,USB&lt;/div&gt;&lt;div&gt;8 Timers&lt;/div&gt;&lt;/div&gt;" style="rounded=0;whiteSpace=wrap;html=1;" vertex="1" parent="1">
          <mxGeometry x="244" y="230" width="340" height="330" as="geometry" />
        </mxCell>
        <mxCell id="58_1QeZ1UF6aICSuf7LJ-1" value="" style="endArrow=classic;html=1;rounded=0;exitX=0.875;exitY=0.5;exitDx=0;exitDy=0;exitPerimeter=0;entryX=-0.02;entryY=0.461;entryDx=0;entryDy=0;entryPerimeter=0;startArrow=none;startFill=0;endFill=1;" edge="1" parent="1">
          <mxGeometry width="50" height="50" relative="1" as="geometry">
            <mxPoint x="99" y="400" as="sourcePoint" />
            <mxPoint x="244" y="400" as="targetPoint" />
          </mxGeometry>
        </mxCell>
        <mxCell id="58_1QeZ1UF6aICSuf7LJ-2" value="" style="endArrow=classic;html=1;rounded=0;exitX=0.875;exitY=0.5;exitDx=0;exitDy=0;exitPerimeter=0;entryX=-0.02;entryY=0.461;entryDx=0;entryDy=0;entryPerimeter=0;startArrow=none;startFill=0;endFill=1;" edge="1" parent="1">
          <mxGeometry width="50" height="50" relative="1" as="geometry">
            <mxPoint x="100" y="300" as="sourcePoint" />
            <mxPoint x="245" y="300" as="targetPoint" />
          </mxGeometry>
        </mxCell>
        <mxCell id="58_1QeZ1UF6aICSuf7LJ-3" value="Airflow" style="text;html=1;align=center;verticalAlign=middle;resizable=0;points=[];autosize=1;strokeColor=none;fillColor=none;" vertex="1" parent="1">
          <mxGeometry x="143" y="350" width="60" height="30" as="geometry" />
        </mxCell>
        <mxCell id="58_1QeZ1UF6aICSuf7LJ-4" value="Pressure" style="text;html=1;align=center;verticalAlign=middle;resizable=0;points=[];autosize=1;strokeColor=none;fillColor=none;" vertex="1" parent="1">
          <mxGeometry x="140" y="250" width="70" height="30" as="geometry" />
        </mxCell>
        <mxCell id="58_1QeZ1UF6aICSuf7LJ-7" value="" style="group" vertex="1" connectable="0" parent="1">
          <mxGeometry x="165" y="280" width="20" height="40" as="geometry" />
        </mxCell>
        <mxCell id="58_1QeZ1UF6aICSuf7LJ-8" value="" style="endArrow=none;html=1;rounded=0;" edge="1" parent="58_1QeZ1UF6aICSuf7LJ-7">
          <mxGeometry width="50" height="50" relative="1" as="geometry">
            <mxPoint x="10" y="40" as="sourcePoint" />
            <mxPoint x="10" as="targetPoint" />
          </mxGeometry>
        </mxCell>
        <mxCell id="58_1QeZ1UF6aICSuf7LJ-9" value="" style="endArrow=none;html=1;rounded=0;" edge="1" parent="58_1QeZ1UF6aICSuf7LJ-7">
          <mxGeometry width="50" height="50" relative="1" as="geometry">
            <mxPoint as="sourcePoint" />
            <mxPoint x="20" as="targetPoint" />
          </mxGeometry>
        </mxCell>
        <mxCell id="58_1QeZ1UF6aICSuf7LJ-10" value="" style="endArrow=none;html=1;rounded=0;" edge="1" parent="58_1QeZ1UF6aICSuf7LJ-7">
          <mxGeometry width="50" height="50" relative="1" as="geometry">
            <mxPoint y="40" as="sourcePoint" />
            <mxPoint x="20" y="40" as="targetPoint" />
          </mxGeometry>
        </mxCell>
        <mxCell id="58_1QeZ1UF6aICSuf7LJ-11" value="" style="group" vertex="1" connectable="0" parent="1">
          <mxGeometry x="164" y="380" width="20" height="40" as="geometry" />
        </mxCell>
        <mxCell id="58_1QeZ1UF6aICSuf7LJ-12" value="" style="endArrow=none;html=1;rounded=0;" edge="1" parent="58_1QeZ1UF6aICSuf7LJ-11">
          <mxGeometry width="50" height="50" relative="1" as="geometry">
            <mxPoint x="10" y="40" as="sourcePoint" />
            <mxPoint x="10" as="targetPoint" />
          </mxGeometry>
        </mxCell>
        <mxCell id="58_1QeZ1UF6aICSuf7LJ-13" value="" style="endArrow=none;html=1;rounded=0;" edge="1" parent="58_1QeZ1UF6aICSuf7LJ-11">
          <mxGeometry width="50" height="50" relative="1" as="geometry">
            <mxPoint as="sourcePoint" />
            <mxPoint x="20" as="targetPoint" />
          </mxGeometry>
        </mxCell>
        <mxCell id="58_1QeZ1UF6aICSuf7LJ-14" value="" style="endArrow=none;html=1;rounded=0;" edge="1" parent="58_1QeZ1UF6aICSuf7LJ-11">
          <mxGeometry width="50" height="50" relative="1" as="geometry">
            <mxPoint y="40" as="sourcePoint" />
            <mxPoint x="20" y="40" as="targetPoint" />
          </mxGeometry>
        </mxCell>
        <mxCell id="58_1QeZ1UF6aICSuf7LJ-15" value="" style="endArrow=classic;html=1;rounded=0;" edge="1" parent="1">
          <mxGeometry width="50" height="50" relative="1" as="geometry">
            <mxPoint x="103" y="399.71000000000004" as="sourcePoint" />
            <mxPoint x="173" y="399.71000000000004" as="targetPoint" />
          </mxGeometry>
        </mxCell>
        <mxCell id="58_1QeZ1UF6aICSuf7LJ-16" value="" style="endArrow=classic;html=1;rounded=0;" edge="1" parent="1">
          <mxGeometry width="50" height="50" relative="1" as="geometry">
            <mxPoint x="105" y="299.71000000000004" as="sourcePoint" />
            <mxPoint x="175" y="299.71000000000004" as="targetPoint" />
          </mxGeometry>
        </mxCell>
        <mxCell id="58_1QeZ1UF6aICSuf7LJ-17" value="Capteur" style="rounded=0;whiteSpace=wrap;html=1;" vertex="1" parent="1">
          <mxGeometry x="40" y="270" width="70" height="50" as="geometry" />
        </mxCell>
        <mxCell id="58_1QeZ1UF6aICSuf7LJ-18" value="Capteur" style="rounded=0;whiteSpace=wrap;html=1;" vertex="1" parent="1">
          <mxGeometry x="40" y="375" width="70" height="50" as="geometry" />
        </mxCell>
        <mxCell id="vOJRQfb2J9I_BWpmUj7d-1" value="Affichage" style="text;html=1;align=center;verticalAlign=middle;resizable=0;points=[];autosize=1;strokeColor=none;fillColor=none;" vertex="1" parent="1">
          <mxGeometry x="619" y="250" width="70" height="30" as="geometry" />
        </mxCell>
        <mxCell id="vOJRQfb2J9I_BWpmUj7d-2" value="" style="group" vertex="1" connectable="0" parent="1">
          <mxGeometry x="644" y="280" width="20" height="40" as="geometry" />
        </mxCell>
        <mxCell id="vOJRQfb2J9I_BWpmUj7d-3" value="" style="endArrow=none;html=1;rounded=0;" edge="1" parent="vOJRQfb2J9I_BWpmUj7d-2">
          <mxGeometry width="50" height="50" relative="1" as="geometry">
            <mxPoint x="10" y="40" as="sourcePoint" />
            <mxPoint x="10" as="targetPoint" />
          </mxGeometry>
        </mxCell>
        <mxCell id="vOJRQfb2J9I_BWpmUj7d-4" value="" style="endArrow=none;html=1;rounded=0;" edge="1" parent="vOJRQfb2J9I_BWpmUj7d-2">
          <mxGeometry width="50" height="50" relative="1" as="geometry">
            <mxPoint as="sourcePoint" />
            <mxPoint x="20" as="targetPoint" />
          </mxGeometry>
        </mxCell>
        <mxCell id="vOJRQfb2J9I_BWpmUj7d-5" value="" style="endArrow=none;html=1;rounded=0;" edge="1" parent="vOJRQfb2J9I_BWpmUj7d-2">
          <mxGeometry width="50" height="50" relative="1" as="geometry">
            <mxPoint y="40" as="sourcePoint" />
            <mxPoint x="20" y="40" as="targetPoint" />
          </mxGeometry>
        </mxCell>
        <mxCell id="vOJRQfb2J9I_BWpmUj7d-6" value="" style="endArrow=classic;html=1;rounded=0;" edge="1" parent="1">
          <mxGeometry width="50" height="50" relative="1" as="geometry">
            <mxPoint x="584" y="299.71000000000004" as="sourcePoint" />
            <mxPoint x="654" y="299.71000000000004" as="targetPoint" />
          </mxGeometry>
        </mxCell>
        <mxCell id="vOJRQfb2J9I_BWpmUj7d-7" value="Afficheur" style="text;html=1;align=center;verticalAlign=middle;resizable=0;points=[];autosize=1;strokeColor=none;fillColor=none;" vertex="1" parent="1">
          <mxGeometry x="660" y="285" width="70" height="30" as="geometry" />
        </mxCell>
        <mxCell id="vOJRQfb2J9I_BWpmUj7d-8" value="Données" style="text;html=1;align=center;verticalAlign=middle;resizable=0;points=[];autosize=1;strokeColor=none;fillColor=none;" vertex="1" parent="1">
          <mxGeometry x="619" y="340" width="70" height="30" as="geometry" />
        </mxCell>
        <mxCell id="vOJRQfb2J9I_BWpmUj7d-9" value="" style="group" vertex="1" connectable="0" parent="1">
          <mxGeometry x="644" y="370" width="20" height="40" as="geometry" />
        </mxCell>
        <mxCell id="vOJRQfb2J9I_BWpmUj7d-10" value="" style="endArrow=none;html=1;rounded=0;" edge="1" parent="vOJRQfb2J9I_BWpmUj7d-9">
          <mxGeometry width="50" height="50" relative="1" as="geometry">
            <mxPoint x="10" y="40" as="sourcePoint" />
            <mxPoint x="10" as="targetPoint" />
          </mxGeometry>
        </mxCell>
        <mxCell id="vOJRQfb2J9I_BWpmUj7d-11" value="" style="endArrow=none;html=1;rounded=0;" edge="1" parent="vOJRQfb2J9I_BWpmUj7d-9">
          <mxGeometry width="50" height="50" relative="1" as="geometry">
            <mxPoint as="sourcePoint" />
            <mxPoint x="20" as="targetPoint" />
          </mxGeometry>
        </mxCell>
        <mxCell id="vOJRQfb2J9I_BWpmUj7d-12" value="" style="endArrow=none;html=1;rounded=0;" edge="1" parent="vOJRQfb2J9I_BWpmUj7d-9">
          <mxGeometry width="50" height="50" relative="1" as="geometry">
            <mxPoint y="40" as="sourcePoint" />
            <mxPoint x="20" y="40" as="targetPoint" />
          </mxGeometry>
        </mxCell>
        <mxCell id="vOJRQfb2J9I_BWpmUj7d-13" value="" style="endArrow=classic;html=1;rounded=0;" edge="1" parent="1">
          <mxGeometry width="50" height="50" relative="1" as="geometry">
            <mxPoint x="584" y="389.71000000000004" as="sourcePoint" />
            <mxPoint x="654" y="389.71000000000004" as="targetPoint" />
          </mxGeometry>
        </mxCell>
        <mxCell id="vOJRQfb2J9I_BWpmUj7d-14" value="Carte SD" style="text;html=1;align=center;verticalAlign=middle;resizable=0;points=[];autosize=1;strokeColor=none;fillColor=none;" vertex="1" parent="1">
          <mxGeometry x="660" y="375" width="70" height="30" as="geometry" />
        </mxCell>
        <mxCell id="YszB3ejd9lcQKVvWiaBl-2" value="SeuilBlower" style="text;html=1;align=center;verticalAlign=middle;resizable=0;points=[];autosize=1;strokeColor=none;fillColor=none;" vertex="1" parent="1">
          <mxGeometry x="128" y="460" width="90" height="30" as="geometry" />
        </mxCell>
        <mxCell id="YszB3ejd9lcQKVvWiaBl-7" value="" style="endArrow=classic;html=1;rounded=0;entryX=-0.02;entryY=0.461;entryDx=0;entryDy=0;entryPerimeter=0;startArrow=none;startFill=0;endFill=1;" edge="1" parent="1">
          <mxGeometry width="50" height="50" relative="1" as="geometry">
            <mxPoint x="110" y="500" as="sourcePoint" />
            <mxPoint x="244" y="500" as="targetPoint" />
          </mxGeometry>
        </mxCell>
        <mxCell id="YszB3ejd9lcQKVvWiaBl-14" value="3 Entrées logiques&lt;br&gt;(boutons)" style="text;html=1;align=center;verticalAlign=middle;resizable=0;points=[];autosize=1;strokeColor=none;fillColor=none;" vertex="1" parent="1">
          <mxGeometry x="8" y="480" width="120" height="40" as="geometry" />
        </mxCell>
        <mxCell id="wcLQVwZske6K56M9Cl98-1" value="" style="endArrow=none;html=1;rounded=0;entryX=0.875;entryY=0.5;entryDx=0;entryDy=0;entryPerimeter=0;endFill=0;startArrow=classic;startFill=1;" edge="1" parent="1">
          <mxGeometry width="50" height="50" relative="1" as="geometry">
            <mxPoint x="700" y="500" as="sourcePoint" />
            <mxPoint x="584" y="500.48" as="targetPoint" />
          </mxGeometry>
        </mxCell>
        <mxCell id="wcLQVwZske6K56M9Cl98-2" value="CmdBlower" style="text;html=1;align=center;verticalAlign=middle;resizable=0;points=[];autosize=1;strokeColor=none;fillColor=none;" vertex="1" parent="1">
          <mxGeometry x="609" y="450" width="90" height="30" as="geometry" />
        </mxCell>
        <mxCell id="wcLQVwZske6K56M9Cl98-3" value="" style="group" vertex="1" connectable="0" parent="1">
          <mxGeometry x="644" y="480" width="20" height="40" as="geometry" />
        </mxCell>
        <mxCell id="wcLQVwZske6K56M9Cl98-4" value="" style="endArrow=none;html=1;rounded=0;" edge="1" parent="wcLQVwZske6K56M9Cl98-3">
          <mxGeometry width="50" height="50" relative="1" as="geometry">
            <mxPoint x="10" y="40" as="sourcePoint" />
            <mxPoint x="10" as="targetPoint" />
          </mxGeometry>
        </mxCell>
        <mxCell id="wcLQVwZske6K56M9Cl98-5" value="" style="endArrow=none;html=1;rounded=0;" edge="1" parent="wcLQVwZske6K56M9Cl98-3">
          <mxGeometry width="50" height="50" relative="1" as="geometry">
            <mxPoint as="sourcePoint" />
            <mxPoint x="20" as="targetPoint" />
          </mxGeometry>
        </mxCell>
        <mxCell id="wcLQVwZske6K56M9Cl98-6" value="" style="endArrow=none;html=1;rounded=0;" edge="1" parent="wcLQVwZske6K56M9Cl98-3">
          <mxGeometry width="50" height="50" relative="1" as="geometry">
            <mxPoint y="40" as="sourcePoint" />
            <mxPoint x="20" y="40" as="targetPoint" />
          </mxGeometry>
        </mxCell>
        <mxCell id="wcLQVwZske6K56M9Cl98-7" value="" style="endArrow=classic;html=1;rounded=0;" edge="1" parent="1">
          <mxGeometry width="50" height="50" relative="1" as="geometry">
            <mxPoint x="584" y="499.71000000000004" as="sourcePoint" />
            <mxPoint x="654" y="499.71000000000004" as="targetPoint" />
          </mxGeometry>
        </mxCell>
        <mxCell id="wcLQVwZske6K56M9Cl98-8" value="Motor &lt;br&gt;Driver" style="rounded=0;whiteSpace=wrap;html=1;" vertex="1" parent="1">
          <mxGeometry x="699" y="475" width="70" height="50" as="geometry" />
        </mxCell>
        <mxCell id="wcLQVwZske6K56M9Cl98-9" value="" style="endArrow=none;html=1;rounded=0;entryX=0.875;entryY=0.5;entryDx=0;entryDy=0;entryPerimeter=0;endFill=0;startArrow=classic;startFill=1;" edge="1" parent="1">
          <mxGeometry width="50" height="50" relative="1" as="geometry">
            <mxPoint x="810" y="500" as="sourcePoint" />
            <mxPoint x="770" y="499.98" as="targetPoint" />
          </mxGeometry>
        </mxCell>
      </root>
    </mxGraphModel>
  </diagram>
</mxfile>
